<svg width="40" height="40" fill="none" xmlns="http://www.w3.org/2000/svg"><path d="M30.156 17.969a1.563 1.563 0 100-3.125 1.563 1.563 0 000 3.125z" fill="#12BFE6"/><path d="M33.75 3.125h-2.031V1.562a1.563 1.563 0 00-3.125 0v1.563h-7.11V1.562a1.563 1.563 0 00-3.125 0v1.563h-7.03V1.562a1.562 1.562 0 10-3.126 0v1.563H6.25A6.257 6.257 0 000 9.375V33.75A6.257 6.257 0 006.25 40h11.953a1.562 1.562 0 100-3.125H6.25a3.129 3.129 0 01-3.125-3.125V9.375A3.129 3.129 0 016.25 6.25h1.953v1.563a1.562 1.562 0 103.125 0V6.25h7.031v1.563a1.562 1.562 0 103.125 0V6.25h7.11v1.563a1.562 1.562 0 103.125 0V6.25h2.031a3.129 3.129 0 013.125 3.125v8.906a1.563 1.563 0 103.125 0V9.375a6.257 6.257 0 00-6.25-6.25z" fill="#12BFE6"/><path d="M30.547 21.094c-5.213 0-9.453 4.24-9.453 9.453 0 5.212 4.24 9.453 9.453 9.453C35.759 40 40 35.76 40 30.547c0-5.213-4.24-9.453-9.453-9.453zm0 15.781a6.335 6.335 0 01-6.328-6.328 6.335 6.335 0 016.328-6.328 6.335 6.335 0 016.328 6.328 6.335 6.335 0 01-6.328 6.328z" fill="#12BFE6"/><path d="M32.813 28.984h-.704v-1.64a1.563 1.563 0 10-3.125 0v3.203c0 .863.7 1.562 1.563 1.562h2.265a1.562 1.562 0 100-3.125zM23.36 17.969a1.563 1.563 0 100-3.125 1.563 1.563 0 000 3.125zm-6.797 6.797a1.562 1.562 0 100-3.125 1.562 1.562 0 000 3.125zm-6.797-6.797a1.563 1.563 0 100-3.125 1.563 1.563 0 000 3.125zm0 6.797a1.562 1.562 0 100-3.125 1.562 1.562 0 000 3.125zm0 6.797a1.562 1.562 0 100-3.125 1.562 1.562 0 000 3.125zm6.797 0a1.563 1.563 0 100-3.126 1.563 1.563 0 000 3.125zm0-13.594a1.563 1.563 0 100-3.125 1.563 1.563 0 000 3.125z" fill="#12BFE6"/></svg>