<svg width="40" height="40" fill="none" xmlns="http://www.w3.org/2000/svg"><path d="M16.685 30.58A4.673 4.673 0 0020 31.95a4.673 4.673 0 003.31-1.366l5.913-5.84a1.563 1.563 0 10-2.196-2.223l-5.915 5.843-.007.007c-.61.609-1.6.609-2.21 0l-5.836-5.842a1.562 1.562 0 10-2.211 2.208l5.837 5.843z" fill="#E88BF7"/><path d="M20 24.102c.863 0 1.563-.7 1.563-1.563V1.562a1.562 1.562 0 10-3.125 0V22.54c0 .863.699 1.563 1.562 1.563zm18.438 12.773H1.562a1.562 1.562 0 100 3.125h36.876a1.562 1.562 0 100-3.125z" fill="#E88BF7"/></svg>