<svg width="40" height="40" fill="none" xmlns="http://www.w3.org/2000/svg"><path d="M20 9.375a4.693 4.693 0 004.688-4.688A4.693 4.693 0 0020 0a4.693 4.693 0 00-4.688 4.688A4.693 4.693 0 0020 9.375zm0-6.25c.861 0 1.563.701 1.563 1.563 0 .861-.701 1.562-1.563 1.562a1.564 1.564 0 01-1.563-1.563c0-.861.701-1.562 1.563-1.562zm8.594 21.726a5.497 5.497 0 01-2.655 4.69l-.113.067a2.356 2.356 0 00-1.139 2.01v6.82a1.562 1.562 0 11-3.125 0v-6.82a5.497 5.497 0 012.655-4.69l.113-.067a2.355 2.355 0 001.139-2.01v-6.96c0-3.229-2.996-3.907-5.508-3.907-2.513 0-5.508.678-5.508 3.907v6.938c0 .826.443 1.6 1.155 2.02l.133.078a5.49 5.49 0 012.697 4.714v6.797a1.562 1.562 0 11-3.125 0V31.64c0-.827-.443-1.601-1.156-2.02l-.133-.078a5.49 5.49 0 01-2.696-4.715V17.89c0-2.354.95-4.251 2.748-5.487 1.471-1.01 3.506-1.545 5.885-1.545s4.413.534 5.884 1.545c1.798 1.236 2.749 3.133 2.749 5.487v6.96zM7.812 12.5A4.693 4.693 0 0012.5 7.812a4.693 4.693 0 00-4.688-4.687 4.693 4.693 0 00-4.687 4.688A4.693 4.693 0 007.813 12.5zm0-6.25c.862 0 1.563.701 1.563 1.563 0 .861-.701 1.562-1.563 1.562A1.564 1.564 0 016.25 7.812c0-.861.701-1.562 1.563-1.562zM12.5 32.969v5.468a1.562 1.562 0 11-3.125 0V32.97a1.562 1.562 0 113.125 0zM9.219 15.586c0 .863-.7 1.562-1.563 1.562-4.531 0-4.531 2.129-4.531 2.93v6.64c0 .735.35 1.435.938 1.876a5.495 5.495 0 012.187 4.375v5.468a1.562 1.562 0 11-3.125 0V32.97c0-.734-.35-1.435-.938-1.875A5.495 5.495 0 010 26.719v-6.64c0-2.113.867-3.782 2.508-4.827 1.28-.815 3.012-1.229 5.148-1.229.863 0 1.563.7 1.563 1.563zM32.187 12.5a4.693 4.693 0 004.688-4.688 4.693 4.693 0 00-4.688-4.687A4.693 4.693 0 0027.5 7.813a4.693 4.693 0 004.688 4.687zm0-6.25c.862 0 1.563.701 1.563 1.563 0 .861-.701 1.562-1.563 1.562a1.564 1.564 0 01-1.562-1.563c0-.861.701-1.562 1.563-1.562zm-1.562 26.719v5.468a1.562 1.562 0 11-3.125 0V32.97a1.562 1.562 0 113.125 0zM40 20.079v6.64a5.496 5.496 0 01-2.188 4.375 2.354 2.354 0 00-.937 1.875v5.468a1.562 1.562 0 11-3.125 0V32.97c0-1.712.818-3.348 2.188-4.375.587-.44.937-1.141.937-1.875v-6.64c0-.802 0-2.93-4.531-2.93a1.562 1.562 0 110-3.126c2.136 0 3.868.414 5.148 1.23C39.132 16.296 40 17.965 40 20.077z" fill="#AC8BF7"/></svg>