<svg width="49" height="50" fill="none" xmlns="http://www.w3.org/2000/svg"><path d="M24.5 49.132c13.531 0 24.5-10.97 24.5-24.5C49 11.1 38.031.132 24.5.132S0 11.1 0 24.632c0 13.53 10.969 24.5 24.5 24.5z" fill="url(#paint0_linear)"/><path d="M21.677 13h-7.06a2.12 2.12 0 00-2.117 2.118v7.059a2.12 2.12 0 002.118 2.117h7.059a2.12 2.12 0 002.117-2.117v-7.06A2.12 2.12 0 0021.677 13zm-1.412 6.353h-1.412v1.412a.705.705 0 11-1.412 0v-1.412H16.03a.705.705 0 110-1.412h1.412V16.53a.705.705 0 111.412 0v1.412h1.412a.706.706 0 110 1.412zM34.382 13h-7.058a2.12 2.12 0 00-2.118 2.118v7.059a2.12 2.12 0 002.117 2.117h7.06a2.12 2.12 0 002.117-2.117v-7.06A2.12 2.12 0 0034.382 13zm-1.411 6.353h-4.236a.705.705 0 110-1.412h4.236a.706.706 0 110 1.412zm-11.294 6.353h-7.06a2.12 2.12 0 00-2.117 2.117v7.06A2.12 2.12 0 0014.618 37h7.059a2.12 2.12 0 002.117-2.118v-7.058a2.12 2.12 0 00-2.117-2.118zm-1.534 6.645a.706.706 0 11-.998.998l-.998-.998-.998.998a.705.705 0 11-.998-.998l.998-.998-.998-.998a.706.706 0 11.998-.998l.998.998.998-.998a.706.706 0 11.998.998l-.998.998.998.998zm14.24-6.645h-7.06a2.12 2.12 0 00-2.117 2.117v7.06A2.12 2.12 0 0027.323 37h7.06a2.12 2.12 0 002.117-2.118v-7.058a2.12 2.12 0 00-2.118-2.118zM32.97 33.47h-4.236a.706.706 0 110-1.412h4.236a.705.705 0 110 1.412zm0-2.824h-4.236a.706.706 0 110-1.412h4.236a.705.705 0 110 1.412z" fill="url(#paint1_linear)"/><defs><linearGradient id="paint0_linear" x1="24.5" y1="49.132" x2="24.5" y2=".132" gradientUnits="userSpaceOnUse"><stop stop-color="#FFC8D1"/><stop offset="1" stop-color="#FFF6F7"/></linearGradient><linearGradient id="paint1_linear" x1="24.5" y1="37" x2="24.5" y2="13" gradientUnits="userSpaceOnUse"><stop stop-color="#FFA68D"/><stop offset="1" stop-color="#FD3A84"/></linearGradient></defs></svg>