<svg width="41" height="41" fill="none" xmlns="http://www.w3.org/2000/svg"><path d="M20.5 41C31.822 41 41 31.822 41 20.5S31.822 0 20.5 0 0 9.178 0 20.5 9.178 41 20.5 41z" fill="url(#paint0_linear)"/><path d="M20.727 18.281c-2.294 0-4.16 1.84-4.16 4.102 0 2.262 1.866 4.101 4.16 4.101s4.161-1.84 4.161-4.101c0-2.262-1.867-4.102-4.16-4.102zm2.798 3.344l-2.972 2.93a.597.597 0 01-.84 0l-1.784-1.758a.58.58 0 010-.829.6.6 0 01.841 0l1.363 1.344 2.552-2.515a.6.6 0 01.84 0 .58.58 0 010 .828zm-6.364-6.938h7.133a.59.59 0 00.594-.585V12.93c0-.97-.8-1.758-1.783-1.758h-.696A1.785 1.785 0 0020.727 10c-.775 0-1.436.49-1.681 1.172h-.696c-.984 0-1.784.788-1.784 1.758v1.17a.59.59 0 00.595.586zm10.7-2.343h-1.844c.04.19.06.385.06.586v1.172c0 .969-.8 1.757-1.783 1.757H17.16c-.983 0-1.783-.788-1.783-1.757V12.93c0-.2.02-.397.06-.586h-1.844a.59.59 0 00-.594.586v16.484a.59.59 0 00.594.586H27.86a.59.59 0 00.595-.586V12.93a.59.59 0 00-.595-.586zm-7.134 15.312c-2.95 0-5.35-2.365-5.35-5.273 0-2.908 2.4-5.274 5.35-5.274 2.95 0 5.35 2.366 5.35 5.274s-2.4 5.273-5.35 5.273z" fill="url(#paint1_linear)"/><defs><linearGradient id="paint0_linear" x1="20.509" y1="41.007" x2="20.509" y2="0" gradientUnits="userSpaceOnUse"><stop stop-color="#A3DBFF"/><stop offset="1" stop-color="#F1FEFF"/></linearGradient><linearGradient id="paint1_linear" x1="20.731" y1="30.003" x2="20.731" y2="10" gradientUnits="userSpaceOnUse"><stop stop-color="#65B2E3"/><stop offset="1" stop-color="#82E2E7"/></linearGradient></defs></svg>