<svg width="41" height="41" fill="none" xmlns="http://www.w3.org/2000/svg"><path d="M20.5 41C31.822 41 41 31.822 41 20.5S31.822 0 20.5 0 0 9.178 0 20.5 9.178 41 20.5 41z" fill="url(#paint0_linear)"/><path d="M20.077 24.553a.53.53 0 00.846 0l3.177-4.236a.529.529 0 00-.552-.83l-1.46.364V11.53a.529.529 0 00-.53-.529h-2.117a.529.529 0 00-.53.53v8.321l-1.46-.364a.528.528 0 00-.55.83l3.176 4.236zm8.894-.847h-3.177a.53.53 0 00-.53.53v1.587h-9.529v-1.588a.53.53 0 00-.53-.53H12.03a.53.53 0 00-.53.53v4.236a.53.53 0 00.53.529h16.94a.53.53 0 00.53-.53v-4.235a.53.53 0 00-.53-.53z" fill="url(#paint1_linear)"/><defs><linearGradient id="paint0_linear" x1="20.509" y1="41.007" x2="20.509" y2="0" gradientUnits="userSpaceOnUse"><stop stop-color="#A3DBFF"/><stop offset="1" stop-color="#F1FEFF"/></linearGradient><linearGradient id="paint1_linear" x1="20.504" y1="29.003" x2="20.504" y2="11" gradientUnits="userSpaceOnUse"><stop stop-color="#65B2E3"/><stop offset="1" stop-color="#82E2E7"/></linearGradient></defs></svg>