<svg width="41" height="42" fill="none" xmlns="http://www.w3.org/2000/svg"><path d="M20.5 41.868c11.322 0 20.5-9.178 20.5-20.5 0-11.321-9.178-20.5-20.5-20.5S0 10.047 0 21.368c0 11.322 9.178 20.5 20.5 20.5z" fill="url(#paint0_linear)"/><path d="M11 13l.4.071 1.584.292c.564.105 1.129.207 1.693.312l1.576.29 1.577.288c.529.098 1.058.194 1.584.293l1.595.294 1.577.288c.524.097 1.05.195 1.576.29.529.099 1.058.195 1.587.293.35.065.702.132 1.053.194.055.01.092.034.13.067l2.835 2.695 1.141 1.084c.027.025.059.044.092.069L19.352 34C16.567 26.994 13.787 20.006 11 13zm8.302 17.894l.027-.006c.02-.165.041-.33.06-.497l.13-1.074c.044-.365.088-.729.134-1.094.044-.355.085-.71.127-1.064l.132-1.073c.044-.357.086-.717.127-1.074l.132-1.084.13-1.073c.05-.414.1-.83.152-1.243.01-.084-.008-.138-.077-.196-1.08-.892-2.157-1.786-3.236-2.68l-3.868-3.205-.081-.064-.019.014c2.042 5.139 4.087 10.277 6.13 15.413zm1.137.008a.088.088 0 01.023.015l8.401-10.228-.01-.02c-.036.005-.071.007-.107.013-.087.017-.177.036-.265.05-.795.145-1.591.287-2.385.429-.832.15-1.662.302-2.492.453l-2 .361c-.084.015-.087.015-.097.096-.034.26-.065.516-.096.775-.044.355-.086.71-.128 1.063-.044.366-.088.73-.134 1.095l-.127 1.063-.132 1.084c-.044.357-.085.716-.13 1.074l-.131 1.084-.134 1.094-.056.5zm4.948-14.113l-.002-.027c-3.799-.7-7.597-1.398-11.396-2.095l-.01.023 6.982 5.786c1.478-1.233 2.952-2.461 4.426-3.687zm1.231.413c-.025.02-.046.032-.067.05-1.371 1.143-2.74 2.286-4.112 3.428a.006.006 0 000 .009c0 .002.002.004.01.016 2.192-.397 4.389-.793 6.586-1.192-.044-.074-2.235-2.169-2.417-2.31z" fill="#fff"/><defs><linearGradient id="paint0_linear" x1="20" y1="1" x2="35.116" y2="35.348" gradientUnits="userSpaceOnUse"><stop offset="0" stop-color="#7FDBC0"/><stop offset="1" stop-color="#1A8A6A"/></linearGradient></defs></svg>