<svg width="49" height="50" fill="none" xmlns="http://www.w3.org/2000/svg"><path d="M24.5 49.868c13.531 0 24.5-10.969 24.5-24.5 0-13.53-10.969-24.5-24.5-24.5S0 11.838 0 25.368c0 13.531 10.969 24.5 24.5 24.5z" fill="url(#paint0_linear)"/><path d="M13.146 15.367c.175.03.325.057.478.085.632.117 1.264.232 1.893.35l2.024.371c.627.115 1.257.233 1.884.347l1.884.345c.632.117 1.264.232 1.893.35l1.907.351 1.884.345c.627.115 1.254.232 1.884.347.632.117 1.264.232 1.896.35.42.077.84.157 1.259.231.065.013.11.04.155.08l3.388 3.22 1.364 1.296c.032.03.07.053.11.082L23.128 40.465c-3.328-8.373-6.651-16.725-9.982-25.098zm9.922 21.386l.032-.008c.025-.197.05-.394.072-.594.053-.427.103-.856.155-1.283.053-.437.105-.871.16-1.308.053-.424.103-.849.153-1.27l.157-1.284c.053-.427.103-.856.153-1.283l.157-1.295c.052-.427.102-.857.155-1.283.06-.495.12-.991.182-1.486.013-.1-.01-.165-.092-.234-1.292-1.066-2.579-2.135-3.868-3.203a6237.93 6237.93 0 01-4.622-3.83 2.748 2.748 0 00-.097-.077l-.023.018 7.326 18.42zm1.359.01c.01.005.02.01.027.017 3.348-4.074 6.694-8.148 10.041-12.224l-.012-.023c-.043.005-.085.008-.127.015-.105.02-.213.043-.318.06-.95.173-1.901.342-2.85.512-.995.18-1.987.362-2.979.542-.797.145-1.594.287-2.39.432-.1.017-.103.017-.116.114-.04.31-.077.617-.114.927-.053.424-.103.848-.153 1.27-.052.437-.105.871-.16 1.308-.052.425-.102.849-.152 1.27l-.158 1.296c-.052.427-.102.857-.155 1.283l-.157 1.296c-.052.437-.107.871-.16 1.308l-.067.597zm5.913-16.868l-.002-.032c-4.54-.836-9.08-1.67-13.619-2.504l-.012.028c2.778 2.304 5.559 4.605 8.344 6.914 1.767-1.473 3.528-2.94 5.29-4.406zm1.472.495c-.03.022-.055.037-.08.06l-4.914 4.096a.008.008 0 000 .01c0 .002.002.005.012.02l7.87-1.425c-.052-.088-2.67-2.592-2.888-2.761z" fill="#5DB098"/><defs><linearGradient id="paint0_linear" x1="23.902" y1="1.026" x2="41.967" y2="42.076" gradientUnits="userSpaceOnUse"><stop stop-color="#EFFEF4"/><stop offset="1" stop-color="#9FF5FD"/></linearGradient></defs></svg>