<svg width="41" height="41" fill="none" xmlns="http://www.w3.org/2000/svg"><path d="M20.5 41C31.822 41 41 31.822 41 20.5S31.822 0 20.5 0 0 9.178 0 20.5 9.178 41 20.5 41z" fill="url(#paint0_linear)"/><path fill-rule="evenodd" clip-rule="evenodd" d="M27.431 11.37a.55.55 0 00-.778 0l-2.914 2.913 4.082 4.082 2.914-2.914a.55.55 0 000-.778l-3.304-3.304zm-12.5 11.722l4.08 4.082 8.031-8.03-4.082-4.082-8.03 8.03zm-2.666 6.747a.55.55 0 01-.122-.594l2.141-5.242 3.817 3.817-5.242 2.14a.55.55 0 01-.594-.121z" fill="url(#paint1_linear)"/><defs><linearGradient id="paint0_linear" x1="20.5" y1="41" x2="20.5" y2="0" gradientUnits="userSpaceOnUse"><stop stop-color="#FFC8D1"/><stop offset="1" stop-color="#FFF6F7"/></linearGradient><linearGradient id="paint1_linear" x1="21.5" y1="30" x2="21.5" y2="11.208" gradientUnits="userSpaceOnUse"><stop stop-color="#FFA68D"/><stop offset="1" stop-color="#FD3A84"/></linearGradient></defs></svg>