<svg width="41" height="41" fill="none" xmlns="http://www.w3.org/2000/svg"><path d="M20.5 41C31.822 41 41 31.822 41 20.5S31.822 0 20.5 0 0 9.178 0 20.5 9.178 41 20.5 41z" fill="url(#paint0_linear)"/><path d="M30.382 26.292c-4.427 0-8.03-3.605-8.03-8.035v-3.535l1.704.426a.618.618 0 00.644-.97l-3.706-4.944c-.233-.312-.755-.312-.988 0L16.3 14.178a.618.618 0 00.644.97l1.703-.426v3.535c0 4.43-3.602 8.035-8.03 8.035a.617.617 0 00-.617.618v2.472c0 .342.276.618.618.618 4.037 0 7.731-2.049 9.882-5.413A11.695 11.695 0 0030.382 30a.617.617 0 00.618-.618V26.91a.617.617 0 00-.618-.618z" fill="url(#paint1_linear)"/><defs><linearGradient id="paint0_linear" x1="20.57" y1=".539" x2="20.57" y2="41" gradientUnits="userSpaceOnUse"><stop stop-color="#F5FFF9"/><stop offset="1" stop-color="#ACE3DB"/></linearGradient><linearGradient id="paint1_linear" x1="20.536" y1="9.276" x2="20.536" y2="30" gradientUnits="userSpaceOnUse"><stop stop-color="#9EEFBA"/><stop offset="1" stop-color="#34B4BF"/></linearGradient></defs></svg>