<svg width="41" height="41" fill="none" xmlns="http://www.w3.org/2000/svg"><path d="M20.5 41C31.822 41 41 31.822 41 20.5S31.822 0 20.5 0 0 9.178 0 20.5 9.178 41 20.5 41z" fill="url(#paint0_linear)"/><path d="M10.886 20.5a2.834 2.834 0 002.828 2.833h3.958v-5.666h-3.959a2.834 2.834 0 00-2.827 2.833zm3.393 7.933c0 .314.253.567.566.567h2.262a.566.566 0 00.565-.567v-3.966H14.28v3.966zm14.704-10.185v4.504a2.823 2.823 0 001.131-2.252c0-.922-.448-1.735-1.13-2.252zM27.286 12a.566.566 0 00-.565.567v.783l-7.918 3.966v6.368l7.918 3.966v.783a.566.566 0 101.131 0V12.567a.566.566 0 00-.566-.567z" fill="url(#paint1_linear)"/><defs><linearGradient id="paint0_linear" x1="20.5" y1="41" x2="20.5" y2="0" gradientUnits="userSpaceOnUse"><stop stop-color="#FFC8D1"/><stop offset="1" stop-color="#FFF6F7"/></linearGradient><linearGradient id="paint1_linear" x1="20.5" y1="29" x2="20.5" y2="12" gradientUnits="userSpaceOnUse"><stop stop-color="#FFA68D"/><stop offset="1" stop-color="#FD3A84"/></linearGradient></defs></svg>