<svg width="41" height="41" fill="none" xmlns="http://www.w3.org/2000/svg"><path d="M20.5 41C31.822 41 41 31.822 41 20.5S31.822 0 20.5 0 0 9.178 0 20.5 9.178 41 20.5 41z" fill="url(#paint0_linear)"/><path d="M21.238 33a.706.706 0 01-.222-.036 13.026 13.026 0 01-8.918-12.374v-8.074c0-.389.314-.703.703-.703 2.62 0 5.158-.769 7.339-2.222l.708-.473a.701.701 0 01.78 0l.709.473a13.188 13.188 0 007.339 2.222c.388 0 .703.314.703.703v8.074a13.026 13.026 0 01-8.918 12.374.704.704 0 01-.223.036z" fill="#5DB098"/><path d="M21.238 27.375a6.335 6.335 0 01-6.328-6.328 6.335 6.335 0 016.328-6.328 6.335 6.335 0 016.328 6.328 6.335 6.335 0 01-6.328 6.328z" fill="url(#paint1_linear)"/><path d="M20.535 23.86a.7.7 0 01-.497-.206l-1.406-1.407a.703.703 0 11.994-.994l.91.91 2.315-2.316a.703.703 0 11.994.994l-2.813 2.813a.701.701 0 01-.497.206z" fill="#5DB098"/><defs><linearGradient id="paint0_linear" x1="20" y1=".132" x2="35.116" y2="34.48" gradientUnits="userSpaceOnUse"><stop stop-color="#EFFEF4"/><stop offset="1" stop-color="#9FF5FD"/></linearGradient><linearGradient id="paint1_linear" x1="21.084" y1="14.76" x2="25.75" y2="25.362" gradientUnits="userSpaceOnUse"><stop stop-color="#EFFEF4"/><stop offset="1" stop-color="#9FF5FD"/></linearGradient></defs></svg>