<svg width="41" height="41" fill="none" xmlns="http://www.w3.org/2000/svg"><path d="M20.5 41C31.822 41 41 31.822 41 20.5S31.822 0 20.5 0 0 9.178 0 20.5 9.178 41 20.5 41z" fill="url(#paint0_linear)"/><path d="M18.616 18.773l3.265-1.633a3.906 3.906 0 003.207 1.683A3.916 3.916 0 0029 14.912 3.916 3.916 0 0025.088 11a3.917 3.917 0 00-3.912 3.912c0 .43.087.836.216 1.223l-3.268 1.634c.203.312.362.65.492 1.004zm-4.704-2.185A3.916 3.916 0 0010 20.5a3.916 3.916 0 003.912 3.912 3.917 3.917 0 003.911-3.912 3.917 3.917 0 00-3.911-3.912zm11.176 5.588c-1.328 0-2.5.669-3.207 1.684l-3.265-1.633c-.13.354-.29.692-.492 1.004l3.268 1.634a3.862 3.862 0 00-.215 1.223A3.917 3.917 0 0025.088 30 3.916 3.916 0 0029 26.088a3.916 3.916 0 00-3.912-3.912z" fill="url(#paint1_linear)"/><defs><linearGradient id="paint0_linear" x1="25" y1="0" x2="42.709" y2="24.755" gradientUnits="userSpaceOnUse"><stop stop-color="#F8F7FF"/><stop offset="1" stop-color="#D9CDFF"/></linearGradient><linearGradient id="paint1_linear" x1="19.066" y1="19.778" x2="24.404" y2="8.666" gradientUnits="userSpaceOnUse"><stop stop-color="#9786F8"/><stop offset="1" stop-color="#C680EF"/></linearGradient></defs></svg>