<svg width="41" height="41" fill="none" xmlns="http://www.w3.org/2000/svg"><path d="M20.5 41C31.822 41 41 31.822 41 20.5S31.822 0 20.5 0 0 9.178 0 20.5 9.178 41 20.5 41z" fill="url(#paint0_linear)"/><path d="M29.166 14.643h-5.958v1.178a1.628 1.628 0 01-.542 3.164h-4.332a1.628 1.628 0 01-.542-3.164v-1.178h-5.958a.537.537 0 00-.542.542V28.21c0 .304.239.543.542.543h17.332a.537.537 0 00.542-.543V15.185a.537.537 0 00-.542-.542zm-9.75 11.94H14a.542.542 0 01-.541-.543 2.714 2.714 0 012.708-2.714h.542a2.17 2.17 0 010-4.342 2.17 2.17 0 010 4.342h.541a2.714 2.714 0 012.708 2.714.54.54 0 01-.541.542zm6.5-1.086h-3.25a.542.542 0 010-1.086h3.25a.542.542 0 010 1.086zM27 23.326h-5.417a.542.542 0 010-1.085H27a.542.542 0 010 1.085zm0-2.17h-5.417a.542.542 0 010-1.086H27a.542.542 0 010 1.085zm-8.666-3.257h4.333a.537.537 0 00.541-.543.537.537 0 00-.541-.543h-.542v-3.798a.537.537 0 00-.542-.543h-2.166a.537.537 0 00-.542.543v3.799h-.541a.537.537 0 00-.542.542c0 .304.238.543.542.543z" fill="url(#paint1_linear)"/><defs><linearGradient id="paint0_linear" x1="20.509" y1="41.007" x2="20.509" y2="0" gradientUnits="userSpaceOnUse"><stop stop-color="#A3DBFF"/><stop offset="1" stop-color="#F1FEFF"/></linearGradient><linearGradient id="paint1_linear" x1="20.504" y1="28.756" x2="20.504" y2="12.472" gradientUnits="userSpaceOnUse"><stop stop-color="#65B2E3"/><stop offset="1" stop-color="#82E2E7"/></linearGradient></defs></svg>