<svg width="544" height="486" fill="none" xmlns="http://www.w3.org/2000/svg"><g filter="url(#filter0_d)"><path d="M278.689 402.408c5.012 9.725 14.467 17.317 28.286 21.508 40.579 12.291 103.336-9.373 140.211-48.284 24.303-25.674 31.315-52.439 21.672-71.248l7.095 13.156c9.643 18.809 2.631 45.574-21.672 71.248-36.895 38.973-99.674 60.596-140.211 48.284-13.818-4.191-23.315-11.762-28.286-21.508l-7.095-13.156z" fill="url(#paint0_linear)"/><path d="M440.885 282.977c13.881 4.211 23.357 11.844 28.37 21.569 9.664 18.85 2.633 45.678-21.712 71.373-36.956 39.058-99.921 60.724-140.563 48.413-13.881-4.211-23.336-11.803-28.37-21.569-9.664-18.85-2.633-45.678 21.69-71.414 36.978-39.017 99.943-60.683 140.585-48.372z" fill="url(#paint1_linear)"/><path d="M401.973 408.103c51.852-26.727 81.261-72.888 65.687-103.102-15.574-30.214-70.234-33.04-122.086-6.312-51.852 26.727-81.262 72.888-65.687 103.102 15.574 30.214 70.233 33.04 122.086 6.312z" fill="url(#paint2_linear)"/><path d="M360.271 320.811l-59.439 68.874c-.164.189-.037.333.212.31l132.425-31.543c.228-.065.433-.276.347-.441l-41.106-54.392c-.043-.083-.251-.081-.416.005l-31.879 17.061c-.083.042-.124.063-.144.126zm11.277 29.385l47.586 7.526-101.272 24.127 53.686-31.653zm-55.23 28.05l44.426-51.446 7.074 21.128-51.5 30.318zm60.518-32.295l14.303-33.614 30.72 40.733-45.023-7.119zm9.093-34.594l-13.113 30.852-6.771-20.236 19.884-10.616z" fill="url(#paint3_linear)"/><path d="M358.835 320.765l-59.438 68.874c-.164.189-.038.333.212.31l132.425-31.543c.227-.065.433-.276.347-.441l-41.065-54.413c-.043-.083-.251-.081-.416.004l-31.879 17.061c-.083.043-.166.086-.186.148zm11.319 29.363l47.586 7.527-101.272 24.127 53.686-31.654zm-55.23 28.05l44.426-51.445 7.074 21.128-51.5 30.317zm60.477-32.273l14.303-33.614 30.72 40.733-45.023-7.119zm9.134-34.615l-13.112 30.852-6.772-20.237 19.884-10.615z" fill="url(#paint4_linear)"/><path d="M359.522 320.778l-59.439 68.874c-.164.189-.037.333.212.31l132.403-31.585c.228-.065.434-.275.348-.441l-41.044-54.372c-.043-.082-.25-.08-.416.005l-31.879 17.061c-.083.043-.103.106-.185.148zm11.319 29.363l47.585 7.527-101.272 24.127 53.687-31.654zm-55.209 28.092l44.425-51.446 7.075 21.128-51.5 30.318zm60.477-32.274l14.303-33.613 30.72 40.732-45.023-7.119zm9.133-34.615l-13.112 30.852-6.771-20.236 19.883-10.616z" fill="url(#paint5_linear)"/></g><g filter="url(#filter1_d)"><path d="M23.557 181.733c-3.228 9.069-2.14 19.726 3.573 31.094 16.738 33.296 68.979 60.353 116.63 60.401 31.381.043 52.953-11.631 59.254-29.12l-4.166 12.454c-6.301 17.489-27.873 29.163-59.254 29.119-47.651-.048-99.892-27.105-116.63-60.4-5.714-11.368-6.837-22.005-3.573-31.095l4.166-12.453z" fill="url(#paint6_linear)"/><path d="M143.795 273.63c-47.798-.06-100.134-27.204-116.913-60.571-16.778-33.367 8.338-60.387 56.08-60.343 47.763.08 100.116 27.169 116.914 60.572 16.778 33.367-8.338 60.386-56.081 60.342z" fill="url(#paint7_linear)"/><path d="M143.505 272.431c-47.009-.077-98.556-26.816-115.11-59.697-16.52-32.901 8.174-59.498 55.182-59.421 47.009.077 98.556 26.816 115.11 59.698 16.555 32.881-8.174 59.497-55.182 59.42z" fill="url(#paint8_linear)"/><path d="M159.505 229.789l-34.351-57.939c-.1-.179-.415-.238-.558-.158L54.53 218.558c-.144.08-.024.295.235.338l98.914 28.729c.168.047.295.023.327-.088l5.503-17.656c.036-.02.016-.056-.004-.092zm-44.552-17.632l-47.855 4.148 53.631-35.846-5.776 31.698zm11.272-29.594l25.647 43.308-31.184-12.869 5.537-30.439zm-10.499 33.434l28.769 25.429-74.023-21.508 45.254-3.921zm34.197 25.13l-26.416-23.312 29.836 12.306-3.42 11.006z" fill="url(#paint9_linear)"/><path d="M160.726 229.533l-34.351-57.939c-.1-.18-.415-.239-.559-.159L55.75 218.301c-.143.08-.024.295.236.339l98.934 28.764c.167.047.295.023.327-.088l5.503-17.656c.036-.02.016-.056-.024-.127zm-44.533-17.597l-47.855 4.148 53.632-35.846-5.777 31.698zm11.273-29.594l25.647 43.308-31.168-12.925 5.521-30.383zm-10.5 33.434l28.769 25.429-74.023-21.508 45.254-3.921zm34.178 25.094l-26.416-23.312 29.836 12.306-3.42 11.006z" fill="url(#paint10_linear)"/><path d="M160.144 229.669l-34.352-57.939c-.099-.179-.414-.239-.558-.159l-70.066 46.867c-.144.08-.024.295.235.338l98.914 28.728c.168.048.296.024.328-.088l5.503-17.655c.036-.02.016-.056-.004-.092zm-44.553-17.632l-47.855 4.148 53.632-35.846-5.777 31.698zm11.272-29.594l25.647 43.308-31.184-12.87 5.537-30.438zm-10.535 33.454l28.769 25.428-74.023-21.507 45.254-3.921zm34.197 25.13l-26.416-23.313 29.836 12.306-3.42 11.007z" fill="url(#paint11_linear)"/></g><g filter="url(#filter2_d)"><path d="M315.13 105.834c3.446 6.547 10.036 11.482 19.436 14.172 27.536 7.876 70.031-7.564 94.87-34.473 16.365-17.715 20.999-35.987 14.395-48.655l4.87 8.84c6.604 12.668 1.97 30.94-14.395 48.655-24.839 26.909-67.334 42.348-94.87 34.472-9.4-2.689-15.998-7.593-19.436-14.171l-4.87-8.84z" fill="url(#paint12_linear)"/><path d="M429.682 85.722c-24.922 26.987-67.517 42.435-95.114 34.544-27.596-7.891-29.791-36.156-4.906-63.119 24.915-26.955 67.487-42.442 95.114-34.544 27.597 7.891 29.791 36.157 4.906 63.12z" fill="url(#paint13_linear)"/><path d="M428.853 85.263c-24.521 26.531-66.475 41.744-93.681 33.98-27.199-7.795-29.374-35.602-4.853-62.132C354.84 30.58 396.795 15.367 424 23.13c27.206 7.764 29.374 35.6 4.853 62.132z" fill="url(#paint14_linear)"/><path d="M413.082 54.015l-50.636-10.753c-.153-.037-.351.11-.38.233l-9.993 64.007c-.03.123.154.168.314.044l67.743-40.951c.114-.07.167-.155.12-.231l-7.114-12.304c.008-.03-.023-.038-.054-.045zm-33.165 16.001l-22.573 29.21 7.664-48.98 14.909 19.77zm-10.858-21.78l37.834 8.053-23.512 10.925-14.322-18.979zm13.431 23.343l29.353-3.02-50.7 30.64 21.347-27.62zm32.011-6.244l-26.932 2.792 22.492-10.457 4.44 7.665z" fill="url(#paint15_linear)"/><path d="M413.573 53.191l-50.636-10.752c-.154-.037-.351.11-.381.233l-9.993 64.007c-.029.123.154.167.314.043l67.774-40.944c.114-.07.167-.154.12-.23l-7.114-12.304c.008-.03-.023-.038-.084-.053zM380.438 69.2l-22.573 29.209 7.664-48.98 14.909 19.77zM369.58 47.419l37.834 8.054-23.535 10.887-14.299-18.941zm13.431 23.343l29.353-3.02-50.7 30.641 21.347-27.62zm31.981-6.251l-26.932 2.792 22.491-10.456 4.441 7.664z" fill="url(#paint16_linear)"/><path d="M413.347 53.591L362.71 42.84c-.153-.037-.35.11-.38.233l-9.993 64.007c-.03.123.154.167.314.043l67.743-40.95c.114-.07.167-.155.12-.231L413.4 53.636c.008-.031-.023-.038-.053-.046zm-33.166 16.002l-22.573 29.209 7.665-48.98 14.908 19.77zm-10.857-21.781l37.833 8.054-23.512 10.925-14.321-18.98zm13.423 23.374l29.353-3.02-50.701 30.641 21.348-27.621zm32.011-6.244l-26.932 2.792 22.492-10.456 4.44 7.664z" fill="url(#paint17_linear)"/></g><g filter="url(#filter3_d)"><path d="M488.302 216.556c12.579 0 22.777-10.198 22.777-22.778 0-12.58-10.198-22.778-22.777-22.778-12.58 0-22.778 10.198-22.778 22.778 0 12.58 10.198 22.778 22.778 22.778z" fill="url(#paint18_radial)"/><path opacity=".5" d="M476.159 188.54c-3.096-3.73-2.223-9.524 1.904-12.937 4.127-3.413 10-3.174 13.096.556 3.095 3.73 2.222 9.524-1.905 12.936-4.206 3.413-10.079 3.175-13.095-.555z" fill="#fff"/></g><g filter="url(#filter4_d)"><path d="M235 63c7.18 0 13-5.82 13-13s-5.82-13-13-13-13 5.82-13 13 5.82 13 13 13z" fill="url(#paint19_radial)"/><path opacity=".5" d="M228.07 47.01c-1.767-2.128-1.269-5.435 1.087-7.383 2.355-1.948 5.707-1.812 7.474.317 1.766 2.13 1.268 5.436-1.087 7.383-2.401 1.948-5.753 1.812-7.474-.316z" fill="#fff"/></g><g filter="url(#filter5_d)"><path d="M438.317 229.635c5.699 0 10.318-4.619 10.318-10.318 0-5.698-4.619-10.317-10.318-10.317-5.698 0-10.317 4.619-10.317 10.317 0 5.699 4.619 10.318 10.317 10.318z" fill="url(#paint20_radial)"/><path opacity=".5" d="M432.817 216.945c-1.402-1.69-1.006-4.314.863-5.86 1.869-1.546 4.53-1.438 5.932.252 1.402 1.689 1.006 4.314-.863 5.859-1.905 1.546-4.566 1.438-5.932-.251z" fill="#fff"/></g><g filter="url(#filter6_d)"><path d="M207 357c7.18 0 13-5.82 13-13s-5.82-13-13-13-13 5.82-13 13 5.82 13 13 13z" fill="url(#paint21_radial)"/><path opacity=".5" d="M200.07 341.01c-1.767-2.128-1.269-5.435 1.087-7.383 2.355-1.948 5.707-1.812 7.474.317 1.766 2.129 1.268 5.436-1.087 7.384-2.401 1.947-5.753 1.811-7.474-.318z" fill="#fff"/></g><g filter="url(#filter7_d)"><path d="M261.818 169l5.674 4.589-1.678 9.523-5.625-4.638 1.629-9.474z" fill="#74D8D3"/><path d="M260.189 178.474l5.625 4.638-8.832.888-5.674-4.638 8.881-.888z" fill="#43C5B6"/><path d="M252.986 169.839l8.832-.839-1.629 9.474-8.881.888 1.678-9.523z" fill="#A2ECF0"/></g><g filter="url(#filter8_d)"><path d="M210.022 118L197 128.565l3.685 21.867 13.022-10.565L210.022 118z" fill="#5DB098"/><path d="M213.707 139.867l-13.022 10.565 20.393 1.965 13.022-10.565-20.393-1.965z" fill="#387865"/><path d="M230.169 119.966L210.022 118l3.685 21.867 20.393 1.965-3.931-21.866z" fill="#A0E2D0"/></g><defs><linearGradient id="paint0_linear" x1="296.39" y1="436.749" x2="486.829" y2="338.586" gradientUnits="userSpaceOnUse"><stop stop-color="#29584A"/><stop offset=".06" stop-color="#2E6353"/><stop offset=".165" stop-color="#3C806C"/><stop offset=".3" stop-color="#51AF94"/><stop offset=".386" stop-color="#6DBCA5"/><stop offset=".527" stop-color="#95CEBE"/><stop offset=".6" stop-color="#A4D5C7"/><stop offset=".663" stop-color="#98CFBF"/><stop offset=".778" stop-color="#77C0AB"/><stop offset=".891" stop-color="#51AF94"/><stop offset=".912" stop-color="#57B298"/><stop offset=".941" stop-color="#68BAA2"/><stop offset=".956" stop-color="#74BFA9"/><stop offset=".971" stop-color="#6DBCA5"/><stop offset=".991" stop-color="#5BB49A"/><stop offset="1" stop-color="#51AF94"/></linearGradient><linearGradient id="paint1_linear" x1="403.282" y1="410.62" x2="333.724" y2="299.28" gradientUnits="userSpaceOnUse"><stop stop-color="#85C7B4"/><stop offset="1" stop-color="#B9DFD4"/></linearGradient><linearGradient id="paint2_linear" x1="455.473" y1="364.564" x2="338.271" y2="278.987" gradientUnits="userSpaceOnUse"><stop stop-color="#4EA88E"/><stop offset="1" stop-color="#97CFBF"/></linearGradient><linearGradient id="paint3_linear" x1="300.293" y1="389.056" x2="418.386" y2="328.184" gradientUnits="userSpaceOnUse"><stop offset=".005" stop-color="#EDEDED"/><stop offset="1" stop-color="#fff"/></linearGradient><linearGradient id="paint4_linear" x1="298.883" y1="388.991" x2="416.976" y2="328.118" gradientUnits="userSpaceOnUse"><stop offset=".005" stop-color="#EDEDED"/><stop offset="1" stop-color="#fff"/></linearGradient><linearGradient id="paint5_linear" x1="343.113" y1="328.708" x2="374.209" y2="388.724" gradientUnits="userSpaceOnUse"><stop offset=".005" stop-color="#EDEDED"/><stop offset="1" stop-color="#fff"/></linearGradient><linearGradient id="paint6_linear" x1="12.409" y1="213.295" x2="191.772" y2="276.688" gradientUnits="userSpaceOnUse"><stop stop-color="#3D836F"/><stop offset=".002" stop-color="#418773"/><stop offset=".02" stop-color="#57A08B"/><stop offset=".038" stop-color="#67B19C"/><stop offset=".058" stop-color="#71BCA6"/><stop offset=".081" stop-color="#74BFA9"/><stop offset=".086" stop-color="#72BCA6"/><stop offset=".146" stop-color="#579A86"/><stop offset=".204" stop-color="#43826F"/><stop offset=".256" stop-color="#377361"/><stop offset=".3" stop-color="#336E5C"/><stop offset=".379" stop-color="#3C826D"/><stop offset=".525" stop-color="#51AF94"/><stop offset=".911" stop-color="#9AD1C1"/><stop offset=".929" stop-color="#92CDBC"/><stop offset=".959" stop-color="#7BC3AE"/><stop offset=".995" stop-color="#57B298"/><stop offset="1" stop-color="#51AF94"/></linearGradient><linearGradient id="paint7_linear" x1="55.822" y1="245.188" x2="117.544" y2="147.447" gradientUnits="userSpaceOnUse"><stop stop-color="#74BFA9"/><stop offset=".241" stop-color="#8FCBBA"/><stop offset=".519" stop-color="#A6D6C8"/><stop offset=".778" stop-color="#B4DDD1"/><stop offset="1" stop-color="#B9DFD4"/></linearGradient><linearGradient id="paint8_linear" x1="158.972" y1="168.912" x2="107.803" y2="281.726" gradientUnits="userSpaceOnUse"><stop stop-color="#97CFBF"/><stop offset="1" stop-color="#4EA88E"/></linearGradient><linearGradient id="paint9_linear" x1="88.861" y1="191.599" x2="128.056" y2="262.047" gradientUnits="userSpaceOnUse"><stop offset=".005" stop-color="#EDEDED"/><stop offset="1" stop-color="#fff"/></linearGradient><linearGradient id="paint10_linear" x1="90.09" y1="191.371" x2="129.285" y2="261.818" gradientUnits="userSpaceOnUse"><stop offset=".005" stop-color="#EDEDED"/><stop offset="1" stop-color="#fff"/></linearGradient><linearGradient id="paint11_linear" x1="103.852" y1="235.897" x2="126.458" y2="171.877" gradientUnits="userSpaceOnUse"><stop offset=".005" stop-color="#EDEDED"/><stop offset="1" stop-color="#fff"/></linearGradient><linearGradient id="paint12_linear" x1="327.166" y1="128.57" x2="456.392" y2="60.197" gradientUnits="userSpaceOnUse"><stop stop-color="#3D836F"/><stop offset=".002" stop-color="#418773"/><stop offset=".02" stop-color="#57A08B"/><stop offset=".038" stop-color="#67B19C"/><stop offset=".058" stop-color="#71BCA6"/><stop offset=".081" stop-color="#74BFA9"/><stop offset=".086" stop-color="#72BCA6"/><stop offset=".146" stop-color="#579A86"/><stop offset=".204" stop-color="#43826F"/><stop offset=".256" stop-color="#377361"/><stop offset=".3" stop-color="#336E5C"/><stop offset=".379" stop-color="#3C826D"/><stop offset=".525" stop-color="#51AF94"/><stop offset=".911" stop-color="#9AD1C1"/><stop offset=".929" stop-color="#92CDBC"/><stop offset=".959" stop-color="#7BC3AE"/><stop offset=".995" stop-color="#57B298"/><stop offset="1" stop-color="#51AF94"/></linearGradient><linearGradient id="paint13_linear" x1="367.797" y1="120.638" x2="344.69" y2="34.856" gradientUnits="userSpaceOnUse"><stop stop-color="#74BFA9"/><stop offset=".241" stop-color="#8FCBBA"/><stop offset=".519" stop-color="#A6D6C8"/><stop offset=".778" stop-color="#B4DDD1"/><stop offset="1" stop-color="#B9DFD4"/></linearGradient><linearGradient id="paint14_linear" x1="378.394" y1="22.617" x2="415.517" y2="110.282" gradientUnits="userSpaceOnUse"><stop stop-color="#97CFBF"/><stop offset="1" stop-color="#4EA88E"/></linearGradient><linearGradient id="paint15_linear" x1="354.711" y1="74.06" x2="414.939" y2="88.588" gradientUnits="userSpaceOnUse"><stop offset=".005" stop-color="#EDEDED"/><stop offset="1" stop-color="#fff"/></linearGradient><linearGradient id="paint16_linear" x1="355.222" y1="73.246" x2="415.45" y2="87.774" gradientUnits="userSpaceOnUse"><stop offset=".005" stop-color="#EDEDED"/><stop offset="1" stop-color="#fff"/></linearGradient><linearGradient id="paint17_linear" x1="387.556" y1="88.652" x2="363.141" y2="42.539" gradientUnits="userSpaceOnUse"><stop offset=".005" stop-color="#EDEDED"/><stop offset="1" stop-color="#fff"/></linearGradient><filter id="filter0_d" x="274.429" y="268.525" width="268.696" height="217.003" filterUnits="userSpaceOnUse" color-interpolation-filters="sRGB"><feFlood flood-opacity="0" result="BackgroundImageFix"/><feColorMatrix in="SourceAlpha" values="0 0 0 0 0 0 0 0 0 0 0 0 0 0 0 0 0 0 127 0"/><feOffset dx="35" dy="17"/><feGaussianBlur stdDeviation="14"/><feColorMatrix values="0 0 0 0 0.38026 0 0 0 0 0.605242 0 0 0 0 0.6125 0 0 0 0.15 0"/><feBlend in2="BackgroundImageFix" result="effect1_dropShadow"/><feBlend in="SourceGraphic" in2="effect1_dropShadow" result="shape"/></filter><filter id="filter1_d" x="4.555" y="95.804" width="276.609" height="280.703" filterUnits="userSpaceOnUse" color-interpolation-filters="sRGB"><feFlood flood-opacity="0" result="BackgroundImageFix"/><feColorMatrix in="SourceAlpha" values="0 0 0 0 0 0 0 0 0 0 0 0 0 0 0 0 0 0 127 0"/><feOffset dx="35" dy="17"/><feGaussianBlur stdDeviation="14"/><feColorMatrix values="0 0 0 0 0.38026 0 0 0 0 0.605242 0 0 0 0 0.6125 0 0 0 0.15 0"/><feBlend in2="BackgroundImageFix" result="effect1_dropShadow"/><feBlend in="SourceGraphic" in2="effect1_dropShadow" result="shape"/></filter><filter id="filter2_d" x="312.345" y="9.541" width="202.255" height="166.361" filterUnits="userSpaceOnUse" color-interpolation-filters="sRGB"><feFlood flood-opacity="0" result="BackgroundImageFix"/><feColorMatrix in="SourceAlpha" values="0 0 0 0 0 0 0 0 0 0 0 0 0 0 0 0 0 0 127 0"/><feOffset dx="35" dy="17"/><feGaussianBlur stdDeviation="14"/><feColorMatrix values="0 0 0 0 0.38026 0 0 0 0 0.605242 0 0 0 0 0.6125 0 0 0 0.15 0"/><feBlend in2="BackgroundImageFix" result="effect1_dropShadow"/><feBlend in="SourceGraphic" in2="effect1_dropShadow" result="shape"/></filter><filter id="filter3_d" x="455.524" y="166" width="85.556" height="85.556" filterUnits="userSpaceOnUse" color-interpolation-filters="sRGB"><feFlood flood-opacity="0" result="BackgroundImageFix"/><feColorMatrix in="SourceAlpha" values="0 0 0 0 0 0 0 0 0 0 0 0 0 0 0 0 0 0 127 0"/><feOffset dx="10" dy="15"/><feGaussianBlur stdDeviation="10"/><feColorMatrix values="0 0 0 0 0.38026 0 0 0 0 0.605242 0 0 0 0 0.6125 0 0 0 0.2 0"/><feBlend in2="BackgroundImageFix" result="effect1_dropShadow"/><feBlend in="SourceGraphic" in2="effect1_dropShadow" result="shape"/></filter><filter id="filter4_d" x="212" y="32" width="66" height="66" filterUnits="userSpaceOnUse" color-interpolation-filters="sRGB"><feFlood flood-opacity="0" result="BackgroundImageFix"/><feColorMatrix in="SourceAlpha" values="0 0 0 0 0 0 0 0 0 0 0 0 0 0 0 0 0 0 127 0"/><feOffset dx="10" dy="15"/><feGaussianBlur stdDeviation="10"/><feColorMatrix values="0 0 0 0 0.38026 0 0 0 0 0.605242 0 0 0 0 0.6125 0 0 0 0.2 0"/><feBlend in2="BackgroundImageFix" result="effect1_dropShadow"/><feBlend in="SourceGraphic" in2="effect1_dropShadow" result="shape"/></filter><filter id="filter5_d" x="418" y="204" width="60.635" height="60.635" filterUnits="userSpaceOnUse" color-interpolation-filters="sRGB"><feFlood flood-opacity="0" result="BackgroundImageFix"/><feColorMatrix in="SourceAlpha" values="0 0 0 0 0 0 0 0 0 0 0 0 0 0 0 0 0 0 127 0"/><feOffset dx="10" dy="15"/><feGaussianBlur stdDeviation="10"/><feColorMatrix values="0 0 0 0 0.38026 0 0 0 0 0.605242 0 0 0 0 0.6125 0 0 0 0.2 0"/><feBlend in2="BackgroundImageFix" result="effect1_dropShadow"/><feBlend in="SourceGraphic" in2="effect1_dropShadow" result="shape"/></filter><filter id="filter6_d" x="184" y="326" width="66" height="66" filterUnits="userSpaceOnUse" color-interpolation-filters="sRGB"><feFlood flood-opacity="0" result="BackgroundImageFix"/><feColorMatrix in="SourceAlpha" values="0 0 0 0 0 0 0 0 0 0 0 0 0 0 0 0 0 0 127 0"/><feOffset dx="10" dy="15"/><feGaussianBlur stdDeviation="10"/><feColorMatrix values="0 0 0 0 0.38026 0 0 0 0 0.605242 0 0 0 0 0.6125 0 0 0 0.2 0"/><feBlend in2="BackgroundImageFix" result="effect1_dropShadow"/><feBlend in="SourceGraphic" in2="effect1_dropShadow" result="shape"/></filter><filter id="filter7_d" x="241.308" y="164" width="56.184" height="55" filterUnits="userSpaceOnUse" color-interpolation-filters="sRGB"><feFlood flood-opacity="0" result="BackgroundImageFix"/><feColorMatrix in="SourceAlpha" values="0 0 0 0 0 0 0 0 0 0 0 0 0 0 0 0 0 0 127 0"/><feOffset dx="10" dy="15"/><feGaussianBlur stdDeviation="10"/><feColorMatrix values="0 0 0 0 0.38026 0 0 0 0 0.605242 0 0 0 0 0.6125 0 0 0 0.2 0"/><feBlend in2="BackgroundImageFix" result="effect1_dropShadow"/><feBlend in="SourceGraphic" in2="effect1_dropShadow" result="shape"/></filter><filter id="filter8_d" x="187" y="113" width="77.1" height="74.397" filterUnits="userSpaceOnUse" color-interpolation-filters="sRGB"><feFlood flood-opacity="0" result="BackgroundImageFix"/><feColorMatrix in="SourceAlpha" values="0 0 0 0 0 0 0 0 0 0 0 0 0 0 0 0 0 0 127 0"/><feOffset dx="10" dy="15"/><feGaussianBlur stdDeviation="10"/><feColorMatrix values="0 0 0 0 0.38026 0 0 0 0 0.605242 0 0 0 0 0.6125 0 0 0 0.2 0"/><feBlend in2="BackgroundImageFix" result="effect1_dropShadow"/><feBlend in="SourceGraphic" in2="effect1_dropShadow" result="shape"/></filter><radialGradient id="paint18_radial" cx="0" cy="0" r="1" gradientUnits="userSpaceOnUse" gradientTransform="rotate(3.44 -2783.566 8099.472) scale(43.4369)"><stop stop-color="#CAF5FA"/><stop offset=".242" stop-color="#ACF3F9"/><stop offset="1" stop-color="#39AD98"/></radialGradient><radialGradient id="paint19_radial" cx="0" cy="0" r="1" gradientUnits="userSpaceOnUse" gradientTransform="rotate(3.44 -601.505 3864.831) scale(24.7908)"><stop stop-color="#CAF5FA"/><stop offset=".242" stop-color="#ACF3F9"/><stop offset="1" stop-color="#39AD98"/></radialGradient><radialGradient id="paint20_radial" cx="0" cy="0" r="1" gradientUnits="userSpaceOnUse" gradientTransform="rotate(3.44 -3342.698 7350.194) scale(19.6752)"><stop stop-color="#ECFBF1"/><stop offset=".242" stop-color="#CAF1D8"/><stop offset=".341" stop-color="#B3E4D6"/><stop offset=".502" stop-color="#8ECAB9"/><stop offset=".645" stop-color="#64B49D"/><stop offset="1" stop-color="#3F8872"/></radialGradient><radialGradient id="paint21_radial" cx="0" cy="0" r="1" gradientUnits="userSpaceOnUse" gradientTransform="rotate(3.44 -5511.091 3545.584) scale(24.7908)"><stop stop-color="#CAF5FA"/><stop offset=".242" stop-color="#ACF3F9"/><stop offset="1" stop-color="#39AD98"/></radialGradient></defs></svg>