<svg width="1920" height="793" fill="none" xmlns="http://www.w3.org/2000/svg"><mask id="a" maskUnits="userSpaceOnUse" x="0" y="0" width="1920" height="793"><path fill="#C4C4C4" d="M0 0h1920v793H0z"/></mask><g mask="url(#a)"><g opacity=".55"><path d="M332.9 274L200 427.6l1.5 1.3 132.9-153.6-1.5-1.3zm5.9 5.1L205.9 432.7l1.5 1.3 132.9-153.6-1.5-1.3zm5.9 5.1L211.8 437.7l1.5 1.3 132.9-153.5-1.5-1.3zm5.9 5.1L217.7 442.8l1.5 1.3 132.9-153.5-1.5-1.3zm5.9 5.1L223.6 447.9l1.5 1.3L358 295.7l-1.5-1.3zm5.9 5L229.5 453l1.5 1.3 132.9-153.6-1.5-1.3zm5.9 5.1L235.4 458.1l1.5 1.3 132.9-153.6-1.5-1.3zm5.9 5.1l-133 153.5 1.6 1.3 132.9-153.5-1.5-1.3zm5.8 5.1L247.1 468.2l1.6 1.3L381.6 316l-1.6-1.3zm5.9 5L253 473.3l1.5 1.3 132.9-153.5-1.5-1.4zm5.9 5.1L258.9 478.4l1.5 1.3 132.9-153.6-1.5-1.3zm5.9 5.1L264.8 483.4l1.5 1.4 132.9-153.6-1.5-1.3zm5.9 5.1L270.7 488.5l1.5 1.3 132.9-153.5-1.5-1.3zm5.9 5.1L276.6 493.6l1.5 1.3L411 341.4l-1.5-1.3zm5.9 5L282.5 498.7l1.5 1.3 132.9-153.6-1.5-1.3zm5.9 5.1L288.4 503.8l1.5 1.3 132.9-153.6-1.5-1.3zm5.9 5.1L294.3 508.8l1.5 1.3 132.9-153.5-1.5-1.3zm5.8 5.1L300.1 513.9l1.6 1.3 132.9-153.5-1.6-1.3zm5.9 5.1L306 519l1.5 1.3 133-153.5-1.6-1.3zm5.9 5L311.9 524.1l1.5 1.3 132.9-153.6-1.5-1.3zm5.9 5.1L317.8 529.2l1.5 1.3 132.9-153.6-1.5-1.3zm5.9 5.1L323.7 534.2l1.5 1.3L458.1 382l-1.5-1.3zm5.9 5.1L329.6 539.3l1.5 1.3L464 387.1l-1.5-1.3zm5.9 5.1L335.5 544.4l1.5 1.3 132.9-153.5-1.5-1.3zm5.9 5L341.4 549.5l1.5 1.3 132.9-153.6-1.5-1.3zm5.9 5.1L347.3 554.6l1.5 1.3 132.9-153.6-1.5-1.3z" opacity=".25" fill="#fff"/><path d="M1701.66 277L1616 376.004l.97.838 85.72-99.004-1.03-.838zm3.8 3.287l-85.66 99.004.97.838 85.66-99.004-.97-.838zm3.81 3.287l-85.66 98.94.96.838 85.66-98.94-.96-.838zm3.8 3.288l-85.66 98.939.97.838 85.66-98.939-.97-.838zm3.8 3.222l-85.66 99.004.97.838 85.66-98.939-.97-.903zm3.81 3.288l-85.67 99.003.97.838 85.66-99.003-.96-.838zm3.8 3.287l-85.66 99.004.96.837 85.67-99.003-.97-.838zm3.8 3.287l-85.66 98.939.97.838 85.66-98.939-.97-.838zm3.8 3.287l-85.72 98.94 1.03.837 85.66-98.939-.97-.838zm3.74 3.223l-85.66 99.004.97.838 85.72-98.939-1.03-.903zm3.81 3.287l-85.67 99.004.97.838 85.66-99.004-.96-.838zm3.8 3.288l-85.66 98.939.96.902 85.67-99.003-.97-.838zm3.8 3.287l-85.66 98.939.97.838 85.66-98.939-.97-.838zm3.8 3.287l-85.66 98.939.97.838 85.66-98.939-.97-.838zm3.81 3.223l-85.66 99.003.96.838 85.66-99.003-.96-.838zm3.8 3.287l-85.66 99.004.97.838 85.66-99.004-.97-.838zm3.8 3.287l-85.66 98.939.97.838 85.66-98.939-.97-.838zm3.81 3.288l-85.73 98.939 1.03.838 85.66-98.94-.96-.837zm3.73 3.287l-85.66 98.939 1.03.838 85.67-98.939-1.04-.838zm3.81 3.223l-85.66 99.003.96.838 85.66-99.004-.96-.837zm3.8 3.287l-85.66 99.003.97.838 85.66-99.003-.97-.838zm3.8 3.287l-85.66 98.939.97.838 85.66-98.939-.97-.838zm3.81 3.287L1699.53 448l.97.838 85.66-98.939-.96-.838zm3.8 3.287l-85.66 98.94.96.838 85.67-98.94-.97-.838zm3.8 3.223l-85.66 99.004.97.838 85.66-99.004-.97-.838zm3.8 3.287l-85.66 99.004.97.838 85.66-99.004-.97-.838z" opacity=".55" fill="#fff"/><path d="M5.5 634.4L4.1 633 0 637.1v2.8l5.5-5.5zm5.5 5.5l-1.4-1.4L0 648v2.9l11-11zm5.5 5.5L15 644 0 659v2.8l16.5-16.4zm5.5 5.5l-1.5-1.4L0 670v2.8l22-21.9zm5.5 5.5L26 655 0 681v2.8l27.5-27.4zm5.5 5.5l-1.5-1.4L0 692v2.8l33-32.9zm5.5 5.5L37 666 0 702.9v2.9l38.5-38.4zm5.5 5.5l-1.5-1.4L0 713.9v2.8l44-43.8zm5.5 5.5L48 677 0 724.9v2.8l49.5-49.3zm5.5 5.5l-1.5-1.4L0 735.9v2.8l55-54.8zm5.5 5.5L59 688 0 746.9v2.8l60.5-60.3zm5.5 5.5l-1.5-1.4L0 757.8v2.9l66-65.8zm5.5 5.5L70 699 0 768.8v2.8l71.5-71.2zm5.5 5.5l-1.5-1.4L0 779.8v2.8l77-76.7zm5.5 5.5L81 710 0 790.8v2.8l82.5-82.2zm5.5 5.5l-1.5-1.4L0 801.7v2.9l88-87.7zm5.5 5.5L92 721 0 812.7v2.8l93.5-93.1zm5.4 5.5l-1.4-1.4L0 823.7v2.8l98.9-98.6zm5.5 5.5L103 732 0 834.7v2.8l104.4-104.1zm5.5 5.5l-1.4-1.4L0 845.7v2.8l109.9-109.6zm5.5 5.5L114 743 0 856.6v2.9l115.4-115.1zm5.5 5.5l-1.4-1.4L0 867.6v2.8l120.9-120.5zm5.5 5.5L125 754 0 878.6v2.8l126.4-126zm5.5 5.5l-1.4-1.4L0 889.6v2.8l131.9-131.5zm5.5 5.5L136 765 0 900.5v2.9l137.4-137z" fill="#fff"/><path opacity=".15" d="M803.5 798c20.158 0 36.5-16.342 36.5-36.5S823.658 725 803.5 725 767 741.342 767 761.5s16.342 36.5 36.5 36.5z" stroke="#fff" stroke-width="5" stroke-miterlimit="10"/><path opacity=".35" d="M1781.15 735.145c16.97-7.026 25.02-26.472 17.99-43.433-7.02-16.962-26.47-25.016-43.43-17.991-16.96 7.026-25.01 26.472-17.99 43.434 7.03 16.961 26.47 25.016 43.43 17.99z" stroke="#fff" stroke-width="5" stroke-miterlimit="10"/><path opacity=".15" d="M185.196 586.955c4.918-20.515-7.726-41.133-28.241-46.051-20.515-4.917-41.133 7.727-46.051 28.242-4.917 20.515 7.727 41.132 28.242 46.05 20.515 4.918 41.132-7.726 46.05-28.241z" stroke="#fff" stroke-width="5" stroke-miterlimit="10"/><path opacity=".35" d="M1855.13 229.733c4.85-20.532-7.87-41.106-28.4-45.955-20.53-4.848-41.1 7.866-45.95 28.398-4.85 20.532 7.86 41.107 28.4 45.955 20.53 4.848 41.1-7.866 45.95-28.398z" stroke="#fff" stroke-width="5" stroke-miterlimit="10"/><path d="M-184 146l23.4 20 23.4-20 23.4 20 23.3-20 23.4 20 23.4-20 23.4 20 23.4-20 23.4 20 23.4-20 23.4 20 23.4-20 23.4 20 23.4-20M-184 173l23.4 20 23.4-20 23.4 20 23.3-20 23.4 20 23.4-20 23.4 20 23.4-20 23.4 20 23.4-20 23.4 20 23.4-20 23.4 20 23.4-20" opacity=".15" stroke="#fff" stroke-width="3" stroke-miterlimit="10"/><path d="M1756.44 0h-2.18l-250.22 308.42 1.31 1.136L1756.44 0zm-33.91 122.267l1.31 1.136 93.25-114.926V5.681l-94.56 116.586zm-232.3 578.648L1378.19 839h2.27l111.08-136.949-1.31-1.136zM1445.66 839h2.27l262.1-323.102-1.31-1.137L1445.66 839z" opacity=".45" fill="#fff"/></g><path d="M203 200.231c.523-.229.975-.421 1.434-.617 1.907-.804 3.81-1.615 5.711-2.414 2.035-.859 4.066-1.725 6.101-2.584 1.89-.802 3.791-1.602 5.68-2.404l5.676-2.41c1.908-.804 3.811-1.615 5.712-2.415l5.749-2.43 5.676-2.41c1.89-.802 3.784-1.597 5.681-2.404 1.907-.804 3.811-1.614 5.718-2.419 1.266-.535 2.536-1.064 3.797-1.606a1 1 0 01.557-.06l14.755 2.597 5.939 1.042c.14.023.28.016.44.026l-7.863 69.765c-23.601-16.435-47.155-32.826-70.763-49.257zm64.112 39.469l.074-.077a135.1 135.1 0 00-.843-1.712c-.605-1.23-1.222-2.463-1.827-3.693a774.981 774.981 0 01-1.856-3.769c-.601-1.224-1.208-2.443-1.811-3.656l-1.819-3.697c-.605-1.231-1.222-2.463-1.833-3.689l-1.842-3.732c-.605-1.23-1.221-2.463-1.826-3.693-.703-1.423-1.41-2.853-2.106-4.281-.14-.288-.315-.421-.659-.462-5.342-.559-10.676-1.133-16.016-1.703-6.382-.676-12.757-1.357-19.144-2.039-.135-.016-.266-.025-.397-.034-.012.026-.019.059-.031.086 17.312 12.054 34.629 24.104 51.936 36.151zm3.678-2.375c.036-.004.071-.008.104-.002 1.894-16.773 3.781-33.541 5.671-50.321-.027-.011-.046-.027-.073-.038-.106.088-.216.17-.317.265-.248.239-.498.488-.75.72-2.256 2.137-4.523 4.271-6.783 6.401-2.364 2.236-4.716 4.474-7.074 6.705-1.893 1.794-3.791 3.582-5.684 5.376-.239.223-.245.227-.109.509.434.896.87 1.78 1.31 2.671.6 1.224 1.208 2.443 1.811 3.656.622 1.257 1.24 2.508 1.856 3.769.601 1.224 1.208 2.443 1.811 3.656l1.842 3.731c.605 1.23 1.221 2.463 1.826 3.693l1.841 3.731c.623 1.257 1.234 2.512 1.856 3.769l.862 1.709zm-13.564-55.404c-.017-.026-.046-.055-.063-.082-13.689 5.792-27.373 11.591-41.058 17.389.004.036.011.06.015.095 11.511 1.233 23.024 2.454 34.564 3.686 2.183-7.046 4.36-14.07 6.542-21.088zm4.828-1.282c-.042.112-.083.196-.111.3-2.027 6.536-4.047 13.066-6.074 19.601-.002.011.007.025.018.027.004.006.015.009.068.031 6.223-5.89 12.466-11.794 18.705-17.704-.295-.14-11.724-2.187-12.606-2.255z" fill="#fff" fill-opacity=".12"/><path d="M270.295 652c.353.699.65 1.304.953 1.917 1.245 2.551 2.498 5.097 3.737 7.639 1.33 2.722 2.668 5.438 3.998 8.16 1.241 2.527 2.479 5.07 3.72 7.598 1.24 2.527 2.488 5.063 3.728 7.591 1.245 2.551 2.499 5.097 3.737 7.639 1.252 2.561 2.51 5.13 3.761 7.691 1.241 2.527 2.488 5.063 3.728 7.591 1.241 2.527 2.473 5.061 3.72 7.597 1.245 2.552 2.498 5.097 3.743 7.649.829 1.693 1.649 3.392 2.486 5.079.126.263.148.494.125.758l-2.444 20.401-.981 8.212c-.02.193-.001.385-.001.604-32.087-1.841-64.058-3.671-96.13-5.51 20.728-33.559 41.399-67.048 62.12-100.616zm-49.218 90.77l.112.096c.759-.423 1.518-.846 2.28-1.284 1.639-.922 3.281-1.858 4.92-2.779 1.674-.948 3.34-1.888 5.021-2.827 1.631-.914 3.255-1.838 4.87-2.755l4.927-2.77c1.639-.922 3.28-1.858 4.913-2.788l4.971-2.803c1.639-.921 3.281-1.858 4.92-2.779 1.896-1.07 3.801-2.146 5.704-3.206.384-.215.553-.463.583-.938.362-7.358.747-14.705 1.125-22.061.445-8.791.896-17.572 1.35-26.37.012-.186.014-.367.017-.547-.037-.013-.083-.021-.121-.034-15.202 24.614-30.398 49.237-45.592 73.845zm3.529 4.858a.437.437 0 01.011.143c23.112 1.329 46.217 2.65 69.338 3.973.014-.037.033-.066.047-.103-.129-.138-.25-.282-.387-.414-.346-.321-.707-.645-1.043-.972-3.096-2.929-6.189-5.872-9.276-8.807-3.24-3.069-6.483-6.122-9.716-9.182-2.6-2.457-5.19-4.921-7.79-7.379-.323-.31-.33-.319-.705-.111a560.047 560.047 0 00-3.56 1.995c-1.63.915-3.254 1.839-4.869 2.756-1.675.947-3.34 1.888-5.021 2.826a994.881 994.881 0 00-4.87 2.756l-4.971 2.802c-1.639.922-3.281 1.858-4.92 2.779l-4.971 2.803c-1.674.947-3.346 1.879-5.021 2.826-.77.445-1.523.877-2.276 1.309zm74.849-22.75c.035-.026.073-.067.108-.093-8.963-18.309-17.935-36.611-26.907-54.914-.048.008-.081.019-.129.027-.82 15.856-1.625 31.715-2.443 47.611 9.814 2.457 19.597 4.91 29.371 7.369zm2.121 6.514c-.158-.048-.276-.098-.421-.128-9.102-2.283-18.197-4.558-27.299-6.841-.015-.002-.033.011-.035.026-.009.007-.011.022-.038.096 8.535 8.078 17.09 16.182 25.654 24.28.17-.413 2.112-16.219 2.139-17.433z" fill="#fff" fill-opacity=".06"/><path d="M43.614 269c.587 1.162 1.08 2.165 1.583 3.183 2.067 4.237 4.149 8.463 6.205 12.685 2.208 4.52 4.431 9.03 6.64 13.55 2.06 4.196 4.116 8.419 6.176 12.616l6.19 12.605c2.068 4.237 4.15 8.463 6.206 12.685 2.078 4.252 4.167 8.519 6.245 12.77 2.06 4.197 4.131 8.409 6.191 12.605 2.06 4.197 4.106 8.405 6.176 12.616 2.068 4.237 4.15 8.464 6.217 12.701 1.375 2.811 2.736 5.633 4.127 8.433.21.438.245.821.208 1.259l-4.059 33.876-1.628 13.636c-.034.321-.002.639-.003 1.004-53.28-3.057-106.368-6.097-159.623-9.15C-25.117 380.349 9.207 324.74 43.615 269zm-81.726 150.724c.058.049.127.112.185.16 1.26-.703 2.522-1.405 3.786-2.133 2.722-1.529 5.448-3.085 8.17-4.614a1652.43 1652.43 0 018.338-4.693c2.707-1.519 5.404-3.053 8.086-4.576l8.181-4.6c2.722-1.53 5.448-3.085 8.16-4.63l8.253-4.653c2.722-1.53 5.448-3.085 8.17-4.615 3.149-1.776 6.312-3.563 9.471-5.324.638-.357.919-.769.968-1.557.602-12.218 1.24-24.418 1.868-36.633a46035.93 46035.93 0 012.242-43.786c.02-.31.024-.61.028-.909-.061-.023-.138-.035-.2-.057-25.244 40.872-50.477 81.759-75.706 122.62zm5.86 8.067c.014.08.029.161.018.237 38.377 2.208 76.744 4.401 115.137 6.598.022-.062.055-.109.077-.171-.215-.229-.414-.469-.643-.688-.573-.533-1.172-1.07-1.731-1.614-5.141-4.863-10.278-9.751-15.404-14.624-5.38-5.095-10.764-10.165-16.133-15.246-4.316-4.081-8.618-8.173-12.934-12.253-.538-.515-.549-.53-1.172-.184a869.739 869.739 0 00-5.91 3.312c-2.708 1.519-5.405 3.053-8.087 4.576-2.78 1.573-5.546 3.135-8.337 4.693-2.708 1.519-5.404 3.053-8.087 4.576l-8.253 4.654c-2.722 1.529-5.448 3.085-8.17 4.614l-8.254 4.654c-2.78 1.573-5.557 3.12-8.338 4.693-1.279.739-2.529 1.456-3.779 2.173zm124.288-37.776c.058-.043.12-.112.178-.155a192429.019 192429.019 0 00-44.678-91.185c-.08.014-.135.031-.215.045-1.362 26.329-2.698 52.663-4.056 79.058 16.296 4.081 32.54 8.153 48.77 12.237zm3.52 10.817c-.261-.08-.458-.163-.698-.214-15.114-3.791-30.217-7.567-45.33-11.358a.054.054 0 00-.059.043c-.014.01-.018.036-.062.159 14.173 13.413 28.378 26.87 42.598 40.317.282-.686 3.506-26.933 3.552-28.947z" fill="#fff" fill-opacity=".05"/><path d="M816 381.765c.841-.698 1.57-1.29 2.31-1.894 3.082-2.489 6.152-4.988 9.224-7.466 3.287-2.658 6.563-5.326 9.85-7.984 3.05-2.476 6.122-4.953 9.173-7.429 3.05-2.476 6.11-4.963 9.161-7.439 3.082-2.49 6.152-4.989 9.224-7.466 3.092-2.501 6.194-5.014 9.286-7.515l9.161-7.439c3.05-2.476 6.112-4.942 9.173-7.429 3.082-2.489 6.152-4.989 9.234-7.478 2.044-1.655 4.1-3.3 6.132-4.965.319-.254.627-.355.992-.407l28.51-3.041 11.474-1.228c.269-.033.524-.119.823-.187 7.507 44.215 14.992 88.268 22.498 132.461-52.109-17.721-104.106-35.385-156.225-53.094zm138.808 38.619c.029-.057.068-.125.096-.182a252.286 252.286 0 00-2.458-2.7c-1.764-1.942-3.55-3.883-5.315-5.825a1532.41 1532.41 0 01-5.41-5.947c-1.753-1.932-3.516-3.853-5.267-5.764l-5.305-5.836c-1.765-1.942-3.551-3.882-5.325-5.813l-5.363-5.886c-1.764-1.942-3.55-3.882-5.315-5.824-2.046-2.246-4.104-4.501-6.14-6.757-.412-.456-.802-.609-1.457-.501-10.121 1.803-20.233 3.572-30.355 5.353a35512.91 35512.91 0 01-36.285 6.391c-.258.043-.504.096-.75.148-.007.055-.002.12-.009.175 38.22 12.996 76.45 25.981 114.658 38.968zm5.506-6.316a.658.658 0 01.191-.059c-5.402-31.848-10.815-63.685-16.23-95.544-.055-.006-.099-.024-.154-.03-.147.218-.307.427-.442.655-.33.57-.657 1.162-.998 1.722-3.016 5.124-6.055 10.249-9.083 15.364-3.162 5.364-6.303 10.726-9.456 16.078-2.532 4.302-5.075 8.595-7.606 12.897-.321.537-.331.548.07.994a730.25 730.25 0 003.823 4.219c1.753 1.932 3.516 3.852 5.267 5.763 1.811 1.982 3.61 3.954 5.411 5.947 1.753 1.932 3.516 3.853 5.267 5.763l5.363 5.886c1.764 1.943 3.55 3.883 5.315 5.825l5.362 5.886c1.811 1.982 3.6 3.965 5.41 5.947.846.909 1.668 1.798 2.49 2.687zm-54.294-94.701c-.046-.039-.114-.077-.16-.117a158377.151 158377.151 0 00-66.291 53.728c.026.063.051.105.077.168 21.821-3.832 43.641-7.686 65.515-11.533.281-14.114.564-28.185.859-42.246zm8.198-4.916c-.016.23-.047.406-.044.612-.265 13.092-.52 26.171-.785 39.263.001.021.024.041.046.039.011.01.033.009.143.021 8.322-14.128 16.676-28.292 25.017-42.465-.615-.102-22.718 2.188-24.377 2.53z" fill="#fff" fill-opacity=".06"/></g></svg>