<svg xmlns="http://www.w3.org/2000/svg" xmlns:xlink="http://www.w3.org/1999/xlink" width="0" height="0" style="position:absolute">
	
		<symbol id="ico-arrow-down" viewBox="0 0 10 6">
			<path d="M1 1l4 4 4-4" fill="none" stroke="currentColor" stroke-linecap="round" stroke-linejoin="round"></path>
		</symbol>
	
		<symbol id="ico-arrows-down" viewBox="0 0 54 62">
			<path d="M5 35.333L27 57l22-21.667M5 5l22 21.667L49 5" fill="none" stroke="currentColor" stroke-width="9" stroke-linecap="round" stroke-linejoin="round"></path>
		</symbol>
	
		<symbol id="ico-burger" viewBox="0 0 16 10">
			<path d="M1.437 1.062h13.125a.438.438 0 0 0 0-.875H1.438a.438.438 0 0 0 0 .875zM14.563 4.563H1.437a.438.438 0 0 0 0 .874h13.125a.438.438 0 0 0 0-.875zM14.563 8.938H1.437a.438.438 0 0 0 0 .874h13.125a.438.438 0 0 0 0-.874z" fill="currentColor" stroke="currentColor" stroke-width=".3"></path>
		</symbol>
	
		<symbol id="ico-clock" viewBox="0 0 17 17">
			<path d="M8.167 15.667a7.5 7.5 0 1 0 0-15 7.5 7.5 0 0 0 0 15z" fill="none" stroke="currentColor" stroke-linecap="round" stroke-linejoin="round"></path><path fill="none" d="M8.167 3.667v4.5l3 1.5" stroke="currentColor" stroke-linecap="round" stroke-linejoin="round"></path>
		</symbol>
	
		<symbol id="ico-close" viewBox="0 0 12 12">
			<path d="M7.061 6l4.72-4.718A.75.75 0 1 0 10.718.221L6 4.94 1.281.22A.75.75 0 1 0 .22 1.283l4.719 4.719-4.72 4.719a.75.75 0 1 0 1.062 1.06l4.72-4.718 4.718 4.719a.748.748 0 0 0 1.061 0 .75.75 0 0 0 0-1.062L7.061 6.002z"></path>
		</symbol>
	
		<symbol id="ico-copy" viewBox="0 0 22 22">
			<path d="M19 8h-9a2 2 0 0 0-2 2v9a2 2 0 0 0 2 2h9a2 2 0 0 0 2-2v-9a2 2 0 0 0-2-2z" fill="none" stroke="currentColor" stroke-width="2" stroke-linecap="round" stroke-linejoin="round"></path><path d="M4 14H3a2 2 0 0 1-2-2V3a2 2 0 0 1 2-2h9a2 2 0 0 1 2 2v1" fill="none" stroke="currentColor" stroke-width="2" stroke-linecap="round" stroke-linejoin="round"></path>
		</symbol>
	
		<symbol id="ico-dollar-round" viewBox="0 0 20 20">
			<path d="M17.071 2.929A9.935 9.935 0 0 0 10 0a9.935 9.935 0 0 0-7.071 2.929A9.935 9.935 0 0 0 0 10a9.935 9.935 0 0 0 2.929 7.071A9.934 9.934 0 0 0 10 20a9.935 9.935 0 0 0 7.071-2.929A9.935 9.935 0 0 0 20 10a9.935 9.935 0 0 0-2.929-7.071zM10 9.375a2.816 2.816 0 0 1 2.813 2.813c0 1.284-.866 2.369-2.044 2.704a.196.196 0 0 0-.144.189v.526a.637.637 0 0 1-.595.642.625.625 0 0 1-.655-.624v-.545a.196.196 0 0 0-.143-.188 2.817 2.817 0 0 1-2.044-2.687.635.635 0 0 1 .606-.642.625.625 0 0 1 .644.624c0 .899.762 1.623 1.674 1.56a1.568 1.568 0 0 0 1.447-1.448A1.564 1.564 0 0 0 10 10.625a2.816 2.816 0 0 1-2.813-2.813c0-1.284.866-2.369 2.044-2.704a.196.196 0 0 0 .144-.189v-.526c0-.337.259-.626.595-.642a.625.625 0 0 1 .655.624v.545c0 .087.059.164.143.188a2.817 2.817 0 0 1 2.044 2.687.635.635 0 0 1-.606.642.625.625 0 0 1-.643-.624c0-.899-.763-1.623-1.675-1.56a1.568 1.568 0 0 0-1.447 1.448A1.564 1.564 0 0 0 10 9.375z"></path>
		</symbol>
	
		<symbol id="ico-facebook" viewBox="0 0 10 19">
			<path d="M2.784 10.725H.487c-.371 0-.487-.143-.487-.5V7.348c0-.38.14-.5.487-.5h2.297V4.757c0-.951.163-1.855.627-2.687A3.874 3.874 0 0 1 5.476.309 5.05 5.05 0 0 1 7.262 0h2.274c.325 0 .464.143.464.476v2.71c0 .333-.14.476-.464.476-.626 0-1.253 0-1.88.024-.626 0-.95.309-.95.975-.024.713 0 1.403 0 2.14h2.69c.372 0 .511.143.511.523v2.877c0 .381-.116.5-.51.5H6.705v7.752c0 .404-.116.547-.533.547h-2.9c-.349 0-.488-.143-.488-.5v-7.775z"></path>
		</symbol>
	
		<symbol id="ico-invest" viewBox="0 0 25 26">
			<path d="M.146.367c.175.03.325.058.478.085.632.117 1.264.232 1.893.35l2.024.371c.627.115 1.257.233 1.884.347l1.884.345c.632.117 1.264.232 1.894.35l1.906.351 1.884.345 1.883.347c.633.117 1.265.232 1.897.35.42.077.84.157 1.259.231.065.013.11.04.155.08l3.388 3.22 1.364 1.296c.032.03.07.053.11.082L10.128 25.465C6.8 17.092 3.477 8.74.146.367zm9.922 21.386l.032-.008c.025-.197.05-.394.072-.594.053-.427.103-.856.155-1.283.053-.437.105-.871.16-1.308.053-.424.103-.849.153-1.27l.157-1.284c.053-.427.103-.856.153-1.283l.157-1.295c.052-.427.102-.857.155-1.283.06-.495.12-.992.182-1.486.013-.1-.01-.165-.092-.234C10.06 9.359 8.773 8.29 7.484 7.222l-4.622-3.83c-.032-.027-.065-.052-.097-.077l-.023.018 7.326 18.42zm1.359.01c.01.005.02.01.027.017 3.348-4.074 6.694-8.148 10.041-12.224l-.012-.023c-.043.005-.085.008-.128.015-.104.02-.212.043-.317.06-.95.173-1.901.342-2.85.512-.995.18-1.987.362-2.979.542-.797.145-1.594.287-2.39.432-.1.017-.103.017-.116.115-.04.309-.077.616-.114.926-.053.424-.103.848-.153 1.27-.052.437-.105.871-.16 1.308-.052.425-.102.849-.152 1.27l-.158 1.296-.154 1.284-.158 1.295c-.052.437-.107.871-.16 1.308l-.067.597zM17.34 4.895l-.002-.032c-4.54-.836-9.08-1.67-13.619-2.504l-.012.028C6.485 4.69 9.266 6.992 12.05 9.3c1.767-1.473 3.528-2.94 5.29-4.406zm1.472.495c-.03.022-.055.037-.08.06l-4.914 4.096a.008.008 0 0 0 0 .01c0 .002.002.005.012.02L21.7 8.15c-.052-.088-2.67-2.592-2.888-2.761z"></path>
		</symbol>
	
		<symbol id="ico-minus" viewBox="0 0 14 4">
			<path d="M13.045.09c.265 0 .49.094.677.28a.92.92 0 0 1 .278.675v1.91a.92.92 0 0 1-.278.676.92.92 0 0 1-.677.278H.954a.92.92 0 0 1-.676-.278A.92.92 0 0 1 0 2.955v-1.91A.92.92 0 0 1 .278.37.92.92 0 0 1 .954.091h12.091z"></path>
		</symbol>
	
		<symbol id="ico-plus" viewBox="0 0 14 14">
			<path d="M13.722 5.37a.921.921 0 0 0-.677-.279H8.91V.954a.92.92 0 0 0-.278-.676A.92.92 0 0 0 7.954 0H6.045a.92.92 0 0 0-.676.278.92.92 0 0 0-.278.676v4.137H.954a.92.92 0 0 0-.676.278.92.92 0 0 0-.278.676v1.91c0 .265.093.49.278.676a.92.92 0 0 0 .676.278h4.137v4.137c0 .265.093.49.278.676a.92.92 0 0 0 .676.278h1.91a.92.92 0 0 0 .676-.278.92.92 0 0 0 .278-.676V8.909h4.136a.92.92 0 0 0 .677-.278.92.92 0 0 0 .278-.676v-1.91a.92.92 0 0 0-.278-.676z"></path>
		</symbol>
	
		<symbol id="ico-protect-green" viewBox="0 0 17 21">
			<path d="M8.096 21a.618.618 0 0 1-.195-.032A11.398 11.398 0 0 1 .098 10.142V3.076c0-.34.275-.615.615-.615A11.54 11.54 0 0 0 7.134.517l.62-.413a.614.614 0 0 1 .683 0l.62.413a11.54 11.54 0 0 0 6.421 1.944c.34 0 .616.275.616.615v7.066c0 4.92-3.137 9.27-7.804 10.826a.619.619 0 0 1-.194.032z" fill="#DAF7E6"></path><path d="M8.096 16.078a5.543 5.543 0 0 1-5.537-5.537 5.543 5.543 0 0 1 5.537-5.537 5.543 5.543 0 0 1 5.537 5.537 5.543 5.543 0 0 1-5.537 5.537z" fill="#A6D0CB"></path><path d="M7.48 13.002a.613.613 0 0 1-.435-.18l-1.23-1.23a.615.615 0 1 1 .87-.87l.795.795L9.506 9.49a.615.615 0 1 1 .87.87l-2.46 2.46a.613.613 0 0 1-.436.181z" fill="#fff"></path>
		</symbol>
	
		<symbol id="ico-tick" viewBox="0 0 9 6">
			<path d="M3.19 6a1 1 0 0 1-.64-.23L.36 4a1 1 0 0 1 1.28-1.59L3.19 3.7 7.36.23a1 1 0 0 1 1.41.13 1 1 0 0 1-.13 1.41l-4.81 4a1 1 0 0 1-.64.23z"></path>
		</symbol>
	
		<symbol id="ico-tick-2" viewBox="0 0 20 16">
			<path d="M16.19 0L7.155 9.392 3.178 5.26 0 8.563 7.155 16 19.368 3.304 16.19 0z"></path>
		</symbol>
	
		<symbol id="ico-tick-circle" viewBox="0 0 22 23">
			<path d="M21 11.08V12a10 10 0 1 1-5.93-9.14" fill="none" stroke="currentColor" stroke-width="2" stroke-linecap="round" stroke-linejoin="round"></path><path d="M21 4L11 14.01l-3-3" fill="none" stroke="currentColor" stroke-width="2" stroke-linecap="round" stroke-linejoin="round"></path>
		</symbol>
	
		<symbol id="ico-twitter" viewBox="0 0 19 15">
			<path d="M19 1.776c-.707.3-1.46.5-2.244.597A3.785 3.785 0 0 0 18.469.282a7.923 7.923 0 0 1-2.47.916A3.957 3.957 0 0 0 13.154 0C10.997 0 9.26 1.7 9.26 3.786c0 .3.026.588.09.863A11.135 11.135 0 0 1 1.324.69 3.728 3.728 0 0 0 .79 2.603c0 1.31.694 2.473 1.73 3.145a3.933 3.933 0 0 1-1.76-.466v.042c0 1.84 1.35 3.367 3.12 3.719a3.995 3.995 0 0 1-1.02.124c-.25 0-.502-.014-.738-.064.505 1.498 1.937 2.6 3.64 2.636a7.973 7.973 0 0 1-4.83 1.614c-.32 0-.626-.013-.932-.051A11.2 11.2 0 0 0 5.976 15c7.167 0 11.086-5.77 11.086-10.77 0-.167-.006-.329-.014-.49A7.652 7.652 0 0 0 19 1.777z"></path>
		</symbol>
	
		<symbol id="ico-user" viewBox="0 0 17 17">
			<path d="M16.99 16.56l-.426-1.7a2.468 2.468 0 0 0-1.618-1.756l-3.117-1.038c-.76-.317-1.108-1.54-1.183-2.006a2.945 2.945 0 0 0 1.041-1.914.578.578 0 0 1 .086-.365c.11-.028.2-.107.243-.213a5.29 5.29 0 0 0 .38-1.547.34.34 0 0 0-.01-.086.91.91 0 0 0-.345-.516V3.542c0-1.141-.348-1.61-.715-1.881C11.256 1.111 10.667 0 8.5 0a3.693 3.693 0 0 0-3.542 3.542v1.877a.91.91 0 0 0-.344.516.34.34 0 0 0-.01.086c.048.532.176 1.054.38 1.548.03.1.11.177.212.204.04.02.114.122.114.373.09.75.465 1.437 1.047 1.918-.074.464-.42 1.687-1.159 1.996l-3.144 1.044A2.468 2.468 0 0 0 .436 14.86l-.425 1.7A.354.354 0 0 0 .354 17h16.292a.354.354 0 0 0 .343-.44z"></path>
		</symbol>
	
		<symbol id="ico-user-round" viewBox="0 0 20 20">
			<path d="M15.624 15.72v-.126c-.016-3.065-2.516-5.57-5.58-5.594a5.631 5.631 0 0 0-5.668 5.755c.043 1.876 1.36 3.482 3.18 3.941a9.992 9.992 0 0 0 4.887 0c1.832-.462 3.15-2.087 3.181-3.976z"></path><path d="M17.07 2.929A9.989 9.989 0 0 0 10 0a9.935 9.935 0 0 0-7.071 2.929A9.935 9.935 0 0 0 0 10a10.008 10.008 0 0 0 2.91 7.052c.135.136.364.013.33-.175A6.886 6.886 0 0 1 7.351 9.28a.195.195 0 0 0 .06-.32 3.74 3.74 0 0 1-1.16-2.843 3.76 3.76 0 0 1 3.6-3.615A3.754 3.754 0 0 1 13.75 6.25a3.74 3.74 0 0 1-1.162 2.711.195.195 0 0 0 .06.32 6.886 6.886 0 0 1 4.113 7.596c-.035.188.194.311.329.175A10.007 10.007 0 0 0 20 10a9.935 9.935 0 0 0-2.93-7.071z"></path><path d="M10 8.75a2.5 2.5 0 1 0 0-5 2.5 2.5 0 0 0 0 5z"></path>
		</symbol>
	
		<symbol id="ico-wallet" viewBox="0 0 21 17">
			<path d="M18.758 0H4.24a1.992 1.992 0 0 0-1.983 1.993v.024h-.269A1.987 1.987 0 0 0 0 3.995v11.012A2 2 0 0 0 1.988 17h14.517a1.992 1.992 0 0 0 1.984-1.993v-.024h.269a1.987 1.987 0 0 0 1.988-1.979V1.994A1.996 1.996 0 0 0 18.758 0zm-2.253 16.04H1.988A1.04 1.04 0 0 1 .96 15.007V3.995a1.027 1.027 0 0 1 1.028-1.018h14.517a1.02 1.02 0 0 1 1.023 1.018v2.747c-.086.02-.173.03-.254.03h-2.771a2.734 2.734 0 0 0 0 5.469h2.766a4.08 4.08 0 0 0 .254-.024l.005 2.79c0 .567-.456 1.028-1.023 1.033zm3.28-3.035a1.027 1.027 0 0 1-1.027 1.018h-.27V11.87c.207-.14.395-.312.553-.504l.744-.96v2.598zm-1.503-2.22c-.24.313-.614.495-1.008.5h-2.771a1.778 1.778 0 0 1 0-3.553h2.766a2.234 2.234 0 0 0 1.767-.87l.744-.96.005 2.934-1.503 1.95zm1.503-6.453l-1.296 1.67V3.996a1.98 1.98 0 0 0-1.984-1.978H3.218v-.024c0-.567.456-1.028 1.022-1.033h14.518a1.04 1.04 0 0 1 1.027 1.033v2.339z"></path>
		</symbol>
	
</svg>
