<svg width="1920" height="1713" fill="none" xmlns="http://www.w3.org/2000/svg"><g opacity=".55"><mask id="a" maskUnits="userSpaceOnUse" x="0" y="0" width="1920" height="1713"><path fill="#C4C4C4" d="M0 0h1920v1713H0z"/></mask><g mask="url(#a)"><path d="M445.9 166L313 319.6l1.5 1.3 132.9-153.6-1.5-1.3zm5.9 5.1L318.9 324.7l1.5 1.3 132.9-153.6-1.5-1.3zm5.9 5.1L324.8 329.7l1.5 1.3 132.9-153.5-1.5-1.3zm5.9 5.1L330.7 334.8l1.5 1.3 132.9-153.5-1.5-1.3zm5.9 5.1L336.6 339.9l1.5 1.3L471 187.7l-1.5-1.3zm5.9 5L342.5 345l1.5 1.3 132.9-153.6-1.5-1.3zm5.9 5.1L348.4 350.1l1.5 1.3 132.9-153.6-1.5-1.3zm5.9 5.1l-133 153.5 1.6 1.3 132.9-153.5-1.5-1.3zm5.8 5.1L360.1 360.2l1.6 1.3L494.6 208l-1.6-1.3zm5.9 5L366 365.3l1.5 1.3 132.9-153.5-1.5-1.4zm5.9 5.1L371.9 370.4l1.5 1.3 132.9-153.6-1.5-1.3zm5.9 5.1L377.8 375.4l1.5 1.4 132.9-153.6-1.5-1.3zm5.9 5.1L383.7 380.5l1.5 1.3 132.9-153.5-1.5-1.3zm5.9 5.1L389.6 385.6l1.5 1.3L524 233.4l-1.5-1.3zm5.9 5L395.5 390.7l1.5 1.3 132.9-153.6-1.5-1.3zm5.9 5.1L401.4 395.8l1.5 1.3 132.9-153.6-1.5-1.3zm5.9 5.1L407.3 400.8l1.5 1.3 132.9-153.5-1.5-1.3zm5.8 5.1L413.1 405.9l1.6 1.3 132.9-153.5-1.6-1.3zm5.9 5.1L419 411l1.5 1.3 133-153.5-1.6-1.3zm5.9 5L424.9 416.1l1.5 1.3 132.9-153.6-1.5-1.3zm5.9 5.1L430.8 421.2l1.5 1.3 132.9-153.6-1.5-1.3zm5.9 5.1L436.7 426.2l1.5 1.3L571.1 274l-1.5-1.3zm5.9 5.1L442.6 431.3l1.5 1.3L577 279.1l-1.5-1.3zm5.9 5.1L448.5 436.4l1.5 1.3 132.9-153.5-1.5-1.3zm5.9 5L454.4 441.5l1.5 1.3 132.9-153.6-1.5-1.3zm5.9 5.1L460.3 446.6l1.5 1.3 132.9-153.6-1.5-1.3z" opacity=".25" fill="#fff"/><path d="M1668.66-65L1583 34.004l.97.838 85.72-99.004-1.03-.838zm3.8 3.287l-85.66 99.004.97.838 85.66-99.004-.97-.838zm3.81 3.288l-85.66 98.939.96.837 85.66-98.939-.96-.837zm3.8 3.287L1594.41 43.8l.97.838 85.66-98.94-.97-.837zm3.8 3.222l-85.66 99.004.97.838 85.66-98.94-.97-.901zm3.81 3.288l-85.67 99.003.97.838 85.66-99.003-.96-.838zm3.8 3.287l-85.66 99.004.96.838 85.67-99.004-.97-.838zm3.8 3.287l-85.66 98.94.97.837 85.66-98.939-.97-.838zm3.8 3.287l-85.72 98.94 1.03.837 85.66-98.939-.97-.838zm3.74 3.223l-85.66 99.004.97.838 85.72-98.94-1.03-.902zm3.81 3.287l-85.67 99.004.97.838 85.66-99.004-.96-.838zm3.8 3.287l-85.66 98.94.96.902 85.67-99.003-.97-.838zm3.8 3.288l-85.66 98.939.97.838 85.66-98.94-.97-.837zm3.8 3.287l-85.66 98.94.97.837L1719-21.557l-.97-.838zm3.81 3.223l-85.66 99.004.96.837 85.66-99.003-.96-.838zm3.8 3.287l-85.66 99.004.97.838 85.66-99.004-.97-.838zm3.8 3.287l-85.66 98.94.97.837 85.66-98.939-.97-.838zm3.81 3.288l-85.73 98.939 1.03.838 85.66-98.94-.96-.837zm3.73 3.287l-85.66 98.939 1.03.838 85.67-98.94-1.04-.837zm3.81 3.223l-85.66 99.003.96.838 85.66-99.003-.96-.838zm3.8 3.287l-85.66 99.003.97.838 85.66-99.003-.97-.838zm3.8 3.287l-85.66 98.939.97.838 85.66-98.939-.97-.838zm3.81 3.287L1666.53 106l.97.838 85.66-98.939-.96-.838zm3.8 3.287l-85.66 98.94.96.838 85.67-98.94-.97-.838zm3.8 3.223l-85.66 99.004.97.838 85.66-99.004-.97-.838zm3.8 3.287l-85.66 99.004.97.838 85.66-99.004-.97-.838zM5.5 776.4L4 775l-15 15v2.8l16.5-16.4zm5.5 5.5l-1.5-1.4L-11 801v2.8l22-21.9zm5.5 5.5L15 786l-26 26v2.8l27.5-27.4zm5.5 5.5l-1.5-1.4L-11 823v2.8l33-32.9zm5.5 5.5L26 797l-37 36.9v2.9l38.5-38.4zm5.5 5.5l-1.5-1.4-42.5 42.4v2.8l44-43.8zm5.5 5.5L37 808l-48 47.9v2.8l49.5-49.3zm5.5 5.5l-1.5-1.4-53.5 53.4v2.8l55-54.8zm5.5 5.5L48 819l-59 58.9v2.8l60.5-60.3zm5.5 5.5l-1.5-1.4-64.5 64.3v2.9l66-65.8zm5.5 5.5L59 830l-70 69.8v2.8l71.5-71.2zm5.5 5.5l-1.5-1.4-75.5 75.3v2.8l77-76.7zm5.5 5.5L70 841l-81 80.8v2.8l82.5-82.2zm5.5 5.5l-1.5-1.4-86.5 86.2v2.9l88-87.7zm5.5 5.5L81 852l-92 91.7v2.8l93.5-93.1zm5.4 5.5l-1.4-1.4-97.5 97.2v2.8l98.9-98.6zm5.5 5.5L92 863-11 965.7v2.8L93.4 864.4zm5.5 5.5l-1.4-1.4L-11 976.7v2.8L98.9 869.9zm5.5 5.5L103 874-11 987.6v2.9l115.4-115.1zm5.5 5.5l-1.4-1.4L-11 998.6v2.8l120.9-120.5zm5.5 5.5L114 885l-125 124.6v2.8l126.4-126zm5.5 5.5l-1.4-1.4L-11 1020.6v2.8l131.9-131.5zm5.5 5.5L125 896l-136 135.5v2.9l137.4-137z" opacity=".55" fill="#fff"/><path opacity=".15" d="M916.5 690c20.158 0 36.5-16.342 36.5-36.5S936.658 617 916.5 617 880 633.342 880 653.5s16.342 36.5 36.5 36.5z" stroke="#fff" stroke-width="5" stroke-miterlimit="10"/><path opacity=".35" d="M1894.15 627.145c16.97-7.026 25.02-26.472 17.99-43.433-7.02-16.962-26.47-25.016-43.43-17.991-16.96 7.026-25.01 26.472-17.99 43.434 7.03 16.961 26.47 25.016 43.43 17.99zm73.98-505.412c4.85-20.532-7.87-41.107-28.4-45.955-20.53-4.848-41.1 7.866-45.95 28.398-4.85 20.532 7.86 41.107 28.4 45.955 20.53 4.848 41.1-7.866 45.95-28.398z" stroke="#fff" stroke-width="5" stroke-miterlimit="10"/><path d="M-71 38l23.4 20 23.4-20L-.8 58l23.3-20 23.4 20 23.4-20 23.4 20 23.4-20 23.4 20 23.4-20 23.4 20 23.4-20 23.4 20 23.4-20M-71 65l23.4 20 23.4-20L-.8 85l23.3-20 23.4 20 23.4-20 23.4 20 23.4-20 23.4 20 23.4-20 23.4 20 23.4-20 23.4 20 23.4-20" opacity=".15" stroke="#fff" stroke-width="3" stroke-miterlimit="10"/><path d="M1869.44 326h-2.18l-250.22 308.42 1.31 1.136L1869.44 326zm-33.91 122.267l1.31 1.136 93.25-114.926v-2.796l-94.56 116.586zm-232.3 578.643L1491.19 1165h2.27l111.08-136.95-1.31-1.14zM1558.66 1165h2.27l262.1-323.102-1.31-1.137L1558.66 1165z" opacity=".45" fill="#fff"/><path d="M334.993 609.764a29.153 29.153 0 00-.404-.672c-10.014-16.243-31.424-21.47-47.795-11.669-16.676 9.983-22.019 31.698-11.927 48.268.14.231.283.46.428.687 6.303 9.836 18.513 14.113 29.673 10.661a62.213 62.213 0 0025.99-15.826c8.246-8.39 9.987-21.302 4.035-31.449z" fill="#fff" fill-opacity=".35"/><path d="M301.262 537.06a62.19 62.19 0 00-47.085 7.325c-14.204 8.65-24.189 22.314-28.117 38.475-3.927 16.16-1.325 32.883 7.325 47.087a62.31 62.31 0 0033.39 26.653 62.53 62.53 0 004.924 1.424c1.16.285 1.978-1.108 1.182-1.998a42.904 42.904 0 01-4.662-6.287c-9.238-15.17-7.893-33.867 1.93-47.424.51-.704.139-1.71-.71-1.895-6.267-1.37-11.965-5.297-15.379-11.366-5.964-10.602-2.702-24.155 7.435-30.88 11.086-7.353 26.009-3.955 32.865 7.303 3.45 5.665 4.193 12.231 2.599 18.183-.225.84.499 1.63 1.358 1.5 16.553-2.505 33.783 4.88 43.022 20.05a42.892 42.892 0 013.446 7.027c.425 1.115 2.038 1.028 2.317-.133.4-1.663.733-3.343.995-5.03a62.308 62.308 0 00-8.357-41.896c-8.651-14.206-22.316-24.192-38.478-28.118z" fill="#fff" fill-opacity=".35"/><path d="M282.514 590.915c7.343-4.471 9.67-14.048 5.198-21.39-4.471-7.343-14.048-9.67-21.39-5.199-7.342 4.472-9.67 14.049-5.198 21.391 4.471 7.342 14.048 9.67 21.39 5.198z" fill="#fff" fill-opacity=".35"/><g opacity=".75" fill="#fff" fill-opacity=".55"><path d="M174.268 262.881c.103-.113.205-.228.305-.344 7.343-8.464 6.513-21.38-1.855-28.833-8.523-7.591-21.63-6.771-29.144 1.794-.104.119-.207.24-.309.361-4.405 5.259-4.657 12.852-.763 18.5a36.521 36.521 0 0013.434 11.784c6.15 3.148 13.691 1.856 18.332-3.262z"/><path d="M209.085 231.21a36.523 36.523 0 00-12.375-25.099c-7.342-6.44-16.753-9.636-26.498-8.998-9.746.638-18.66 5.032-25.101 12.375a36.595 36.595 0 00-9.071 23.392 37.302 37.302 0 00.067 3.009c.044.7.968.914 1.327.311a25.218 25.218 0 012.705-3.716c6.878-7.841 17.592-10.371 26.914-7.248a.71.71 0 00.937-.731 13.675 13.675 0 013.668-10.614c4.894-5.204 13.062-5.756 18.61-1.257 6.068 4.92 6.785 13.88 1.681 19.699a13.673 13.673 0 01-9.734 4.65.712.712 0 00-.602 1.025c4.312 8.836 3.199 19.788-3.679 27.629a25.133 25.133 0 01-3.332 3.166c-.551.434-.218 1.322.481 1.275a37.064 37.064 0 002.994-.326 36.59 36.59 0 0022.01-12.042c6.44-7.342 9.636-16.754 8.998-26.5z"/><path d="M175.613 230.163a9.142 9.142 0 1012.056-13.745 9.142 9.142 0 00-12.056 13.745z"/></g><path d="M1656.13 340.573l.24-.674c5.84-16.479-2.73-34.761-19.13-40.811-16.71-6.163-35.28 2.502-41.3 19.225-.09.233-.17.467-.24.701-3.4 10.149.56 21.319 9.44 27.3a56.955 56.955 0 0026.23 9.451c10.72 1.063 20.93-5.114 24.76-15.192z" fill="#fff" fill-opacity=".15"/><path d="M1688.62 274.726a56.95 56.95 0 00-32.28-29.389c-14.34-5.165-29.82-4.439-43.61 2.045s-24.23 17.949-29.39 32.284a57.061 57.061 0 001.98 43.474c.46.991 1.93.774 2.1-.305.39-2.324.98-4.645 1.81-6.939 5.52-15.309 19.63-25.093 34.95-25.875.8-.04 1.3-.882.94-1.595-2.62-5.259-3.09-11.581-.72-17.505 4.14-10.348 15.68-15.808 26.31-12.439 11.61 3.685 17.76 16.287 13.67 27.647-2.06 5.718-6.32 10.021-11.48 12.304-.73.322-.88 1.293-.29 1.831 11.3 10.372 15.93 26.911 10.41 42.22a38.558 38.558 0 01-3.03 6.497c-.55.945.44 2.045 1.42 1.577 1.42-.67 2.81-1.398 4.17-2.18a57.104 57.104 0 0025.09-30.038c5.16-14.336 4.44-29.825-2.05-43.614z" fill="#fff" fill-opacity=".15"/><path d="M1639.42 292.295c7.41 2.67 15.58-1.173 18.25-8.583 2.67-7.409-1.17-15.581-8.58-18.25-7.41-2.67-15.58 1.172-18.25 8.582-2.67 7.41 1.17 15.581 8.58 18.251z" fill="#fff" fill-opacity=".15"/></g></g></svg>