<svg width="117" height="119" fill="none" xmlns="http://www.w3.org/2000/svg"><g filter="url(#filter0_d)"><path fill-rule="evenodd" clip-rule="evenodd" d="M51.844 96.993V97l49.132-60.968.415-.06-16.516-15.258L15 8l36.843 89 .001-.007z" fill="#fff"/></g><path d="M59.244 43.228L22.56 14.674 52.955 88.1l6.289-44.87z" fill="url(#paint0_linear)"/><path d="M58.384 42.585l-5.429 45.514 40.68-50.48-35.25 4.966z" fill="url(#paint1_linear)"/><path d="M58.196 42.996l35.637-5.245-13.626-12.587-22.01 17.832z" fill="url(#paint2_linear)"/><path d="M58.196 42.995L22.56 14.675l57.647 10.489-22.011 17.831z" fill="url(#paint3_linear)"/><defs><linearGradient id="paint0_linear" x1="35.963" y1="52.499" x2="55.977" y2="44.722" gradientUnits="userSpaceOnUse"><stop stop-color="#00C6E4"/><stop offset="1" stop-color="#14DAFF"/></linearGradient><linearGradient id="paint1_linear" x1="75.983" y1="61.399" x2="58.182" y2="42.5" gradientUnits="userSpaceOnUse"><stop stop-color="#00DFAD"/><stop offset="1" stop-color="#66FFDA"/></linearGradient><linearGradient id="paint2_linear" x1="85.987" y1="30.25" x2="58.188" y2="43.583" gradientUnits="userSpaceOnUse"><stop stop-color="#AF8CFF"/><stop offset="1" stop-color="#D6C2FF"/></linearGradient><linearGradient id="paint3_linear" x1="51.526" y1="19.124" x2="57.093" y2="43.597" gradientUnits="userSpaceOnUse"><stop stop-color="#FFB84F"/><stop offset="1" stop-color="#FFC891"/></linearGradient><filter id="filter0_d" x="0" y="0" width="116.391" height="119" filterUnits="userSpaceOnUse" color-interpolation-filters="sRGB"><feFlood flood-opacity="0" result="BackgroundImageFix"/><feColorMatrix in="SourceAlpha" values="0 0 0 0 0 0 0 0 0 0 0 0 0 0 0 0 0 0 127 0"/><feOffset dy="7"/><feGaussianBlur stdDeviation="7.5"/><feColorMatrix values="0 0 0 0 0.329427 0 0 0 0 0.37221 0 0 0 0 0.479167 0 0 0 0.15 0"/><feBlend in2="BackgroundImageFix" result="effect1_dropShadow"/><feBlend in="SourceGraphic" in2="effect1_dropShadow" result="shape"/></filter></defs></svg>