<svg width="198" height="74" fill="none" xmlns="http://www.w3.org/2000/svg"><g filter="url(#filter0_d)"><path fill-rule="evenodd" clip-rule="evenodd" d="M33.215 51.994V52l24.29-30.141.205-.03-8.165-7.543L15 8l18.215 44v-.006z" fill="#fff"/></g><path d="M36.873 25.417L18.737 11.3l15.027 36.3 3.11-22.183z" fill="url(#paint0_linear)"/><path d="M36.448 25.098L33.764 47.6l20.112-24.956-17.428 2.454z" fill="url(#paint1_linear)"/><path d="M36.355 25.301l17.618-2.592-6.736-6.223L36.355 25.3z" fill="url(#paint2_linear)"/><path d="M36.355 25.301L18.737 11.3l28.5 5.186L36.355 25.3z" fill="url(#paint3_linear)"/><path d="M141.527 38.227h4.89V31.95h2.51l3.694 6.277h5.335l-4.198-6.984c2.222-.913 3.507-2.713 3.507-5.247 0-3.77-2.836-6.107-7.38-6.107h-8.358v18.338zm4.89-9.769v-4.996h2.411c2.193 0 3.369.833 3.369 2.534 0 1.701-1.176 2.462-3.369 2.462h-2.411zm35.408.6c0-6.062-4.228-9.42-9.661-9.42-5.454 0-9.652 3.358-9.652 9.42 0 6.035 4.198 9.42 9.652 9.42 5.433 0 9.661-3.358 9.661-9.42zm-4.998 0c0 3.59-1.739 5.534-4.663 5.534-2.915 0-4.663-1.944-4.663-5.534s1.748-5.533 4.663-5.533c2.924 0 4.663 1.943 4.663 5.533zm15.526-9.169h-4.89v18.338h4.89V19.889z" fill="#313131"/><path d="M75.554 38.214h4.44l3.443-11.265h.15l3.441 11.265h4.45l5.55-18.575h-5.093l-2.892 12.199h-.158l-3.293-12.2h-4.16l-3.294 12.173h-.158l-2.883-12.172h-5.103l5.56 18.575zm31.091.264c3.759 0 6.231-1.77 6.754-4.509l-4.189-.117c-.354.925-1.287 1.424-2.481 1.424-1.754 0-2.836-1.134-2.836-2.84v-.117h9.552v-1.107c0-4.59-2.873-7.11-6.94-7.11-4.328 0-7.108 2.883-7.108 7.2 0 4.463 2.742 7.175 7.248 7.175zm-2.752-8.735c.065-1.388 1.194-2.44 2.705-2.44 1.502 0 2.584 1.016 2.603 2.44h-5.308zm19.071-10.104h-4.562v18.575h4.562V19.64zm10.092 0h-4.562v18.575h4.562V19.64z" fill="#6D7D87"/><defs><linearGradient id="paint0_linear" x1="25.364" y1="30" x2="35.258" y2="26.155" gradientUnits="userSpaceOnUse"><stop stop-color="#00C6E4"/><stop offset="1" stop-color="#14DAFF"/></linearGradient><linearGradient id="paint1_linear" x1="45.149" y1="34.4" x2="36.348" y2="25.057" gradientUnits="userSpaceOnUse"><stop stop-color="#00DFAD"/><stop offset="1" stop-color="#66FFDA"/></linearGradient><linearGradient id="paint2_linear" x1="50.095" y1="19" x2="36.352" y2="25.592" gradientUnits="userSpaceOnUse"><stop stop-color="#AF8CFF"/><stop offset="1" stop-color="#D6C2FF"/></linearGradient><linearGradient id="paint3_linear" x1="33.058" y1="13.5" x2="35.81" y2="25.599" gradientUnits="userSpaceOnUse"><stop stop-color="#FFB84F"/><stop offset="1" stop-color="#FFC891"/></linearGradient><filter id="filter0_d" x="0" y="0" width="72.71" height="74" filterUnits="userSpaceOnUse" color-interpolation-filters="sRGB"><feFlood flood-opacity="0" result="BackgroundImageFix"/><feColorMatrix in="SourceAlpha" values="0 0 0 0 0 0 0 0 0 0 0 0 0 0 0 0 0 0 127 0"/><feOffset dy="7"/><feGaussianBlur stdDeviation="7.5"/><feColorMatrix values="0 0 0 0 0.329427 0 0 0 0 0.37221 0 0 0 0 0.479167 0 0 0 0.15 0"/><feBlend in2="BackgroundImageFix" result="effect1_dropShadow"/><feBlend in="SourceGraphic" in2="effect1_dropShadow" result="shape"/></filter></defs></svg>