<svg width="118" height="120" fill="none" xmlns="http://www.w3.org/2000/svg"><g filter="url(#filter0_d)"><path fill-rule="evenodd" clip-rule="evenodd" d="M52.395 97.548l-.002.02 49.482-61.355.418-.062-16.634-15.354h.001L15.286 8l37.106 89.567.003-.02z" fill="#fff"/></g><path d="M59.846 43.455L22.9 14.718l30.613 73.893 6.333-45.157z" fill="url(#paint0_linear)"/><path d="M58.98 42.808l-5.467 45.804 40.97-50.801-35.503 4.997z" fill="url(#paint1_linear)"/><path d="M58.791 43.221l35.891-5.278L80.96 25.276 58.791 43.22z" fill="url(#paint2_linear)"/><path d="M58.79 43.22L22.9 14.718l58.059 10.556L58.79 43.22z" fill="url(#paint3_linear)"/><defs><linearGradient id="paint0_linear" x1="36.399" y1="52.784" x2="56.552" y2="44.947" gradientUnits="userSpaceOnUse"><stop stop-color="#12CBE7"/><stop offset="1" stop-color="#5CDCF4"/></linearGradient><linearGradient id="paint1_linear" x1="76.705" y1="61.742" x2="58.791" y2="42.709" gradientUnits="userSpaceOnUse"><stop stop-color="#1DECBE"/><stop offset="1" stop-color="#88F4DA"/></linearGradient><linearGradient id="paint2_linear" x1="86.781" y1="30.394" x2="58.791" y2="43.829" gradientUnits="userSpaceOnUse"><stop stop-color="#C8AFFF"/><stop offset="1" stop-color="#D8C7FC"/></linearGradient><linearGradient id="paint3_linear" x1="52.074" y1="19.197" x2="57.672" y2="43.828" gradientUnits="userSpaceOnUse"><stop stop-color="#FBAD16"/><stop offset="1" stop-color="#FFD085"/></linearGradient><filter id="filter0_d" x=".286" y=".001" width="117.007" height="119.567" filterUnits="userSpaceOnUse" color-interpolation-filters="sRGB"><feFlood flood-opacity="0" result="BackgroundImageFix"/><feColorMatrix in="SourceAlpha" values="0 0 0 0 0 0 0 0 0 0 0 0 0 0 0 0 0 0 127 0"/><feOffset dy="7"/><feGaussianBlur stdDeviation="7.5"/><feColorMatrix values="0 0 0 0 0.329427 0 0 0 0 0.37221 0 0 0 0 0.479167 0 0 0 0.1 0"/><feBlend in2="BackgroundImageFix" result="effect1_dropShadow"/><feBlend in="SourceGraphic" in2="effect1_dropShadow" result="shape"/></filter></defs></svg>