<svg width="251" height="255" fill="none" xmlns="http://www.w3.org/2000/svg"><path d="M4.15 49.273H2.869L.69 50.696v1.261l2.088-1.363h.052V58h1.32v-8.727zM12.207 58h5.272v-1.133h-3.955v-7.594h-1.316V58zm7.974 0h5.523v-1.133h-4.206v-2.672h3.869v-1.13h-3.87v-2.659h4.155v-1.133H20.18V58zm9.193-8.727H27.95L31.09 58h1.522l3.14-8.727H34.33L31.9 56.38h-.098l-2.429-7.108zM38.213 58h5.522v-1.133H39.53v-2.672h3.87v-1.13h-3.87v-2.659h4.155v-1.133h-5.471V58zm8.43 0h5.271v-1.133H47.96v-7.594h-1.317V58z" fill="#6D7D87"/><path d="M3.07 34h5.556L19.19 13.008V8.544H1.33v4.4h12.292v.174L3.07 34zm31.68-4.09c.021 2.769 1.811 5.155 5.156 5.155 3.346 0 5.22-2.386 5.2-5.156v-1.15c.02-2.813-1.812-5.157-5.2-5.157-3.302 0-5.135 2.387-5.156 5.157v1.15zM23.33 17.422c.02 2.77 1.81 5.114 5.156 5.114 3.345 0 5.22-2.301 5.199-5.114v-1.15c.021-2.813-1.811-5.156-5.2-5.156-3.26 0-5.134 2.343-5.155 5.156v1.15zM24.523 34h3.025l15-21.818h-3.025L24.523 34zm13.935-5.241c.02-.853.32-1.833 1.448-1.833 1.215 0 1.47.98 1.45 1.833v1.15c.02.852-.278 1.79-1.45 1.79-1.129 0-1.427-.98-1.448-1.79v-1.15zM27.08 16.273c.02-.81.277-1.833 1.406-1.833 1.214 0 1.47.98 1.449 1.833v1.15c.021.853-.277 1.79-1.45 1.79-1.086 0-1.384-.937-1.405-1.79v-1.15z" fill="#12BFE6"/><path d="M99.84 58h5.744v-1.13h-3.929v-.063l1.734-1.816c1.598-1.615 2.054-2.386 2.054-3.362 0-1.402-1.142-2.476-2.787-2.476-1.632 0-2.825 1.057-2.825 2.651h1.257c-.004-.938.601-1.551 1.543-1.551.886 0 1.559.545 1.559 1.415 0 .77-.46 1.325-1.397 2.318l-2.954 3.06V58zm13.054 0h5.271v-1.133h-3.954v-7.594h-1.317V58zm7.973 0h5.523v-1.133h-4.206v-2.672h3.869v-1.13h-3.869v-2.659h4.155v-1.133h-5.472V58zm9.194-8.727h-1.424L131.778 58h1.521l3.141-8.727h-1.423l-2.429 7.108h-.098l-2.429-7.108zM138.9 58h5.523v-1.133h-4.206v-2.672h3.869v-1.13h-3.869v-2.659h4.155v-1.133H138.9V58zm8.431 0h5.271v-1.133h-3.955v-7.594h-1.316V58z" fill="#6D7D87"/><path d="M101.063 34h18.147v-4.4h-10.689v-.174l3.716-3.642c5.232-4.772 6.637-7.159 6.637-10.055 0-4.412-3.604-7.532-9.061-7.532-5.344 0-9.011 3.195-8.998 8.191h5.108c-.012-2.436 1.529-3.927 3.853-3.927 2.237 0 3.903 1.392 3.903 3.629 0 2.026-1.243 3.418-3.555 5.643l-9.061 8.39V34zm33.918-4.09c.021 2.769 1.811 5.155 5.156 5.155 3.345 0 5.22-2.386 5.199-5.156v-1.15c.021-2.813-1.811-5.157-5.199-5.157-3.303 0-5.135 2.387-5.156 5.157v1.15zM123.56 17.422c.021 2.77 1.811 5.114 5.156 5.114 3.346 0 5.221-2.301 5.199-5.114v-1.15c.022-2.813-1.811-5.156-5.199-5.156-3.26 0-5.135 2.343-5.156 5.156v1.15zM124.753 34h3.026l15-21.818h-3.026l-15 21.818zm13.935-5.241c.021-.853.32-1.833 1.449-1.833 1.214 0 1.47.98 1.449 1.833v1.15c.021.852-.277 1.79-1.449 1.79-1.129 0-1.428-.98-1.449-1.79v-1.15zM127.31 16.273c.021-.81.277-1.833 1.406-1.833 1.215 0 1.471.98 1.449 1.833v1.15c.022.853-.277 1.79-1.449 1.79-1.086 0-1.385-.937-1.406-1.79v-1.15z" fill="#AC8BF7"/><path d="M199.878 58.12c1.781 0 3.089-1.066 3.085-2.515.004-1.104-.665-1.896-1.824-2.075v-.068c.912-.235 1.504-.95 1.5-1.93.004-1.283-1.048-2.379-2.727-2.379-1.602 0-2.889.968-2.932 2.387h1.274c.03-.801.784-1.287 1.641-1.287.891 0 1.474.541 1.47 1.346.004.844-.673 1.398-1.641 1.398h-.737v1.074h.737c1.211 0 1.91.614 1.91 1.492 0 .847-.738 1.423-1.765 1.423-.946 0-1.683-.486-1.734-1.262h-1.338c.055 1.424 1.317 2.395 3.081 2.395zm10.391-.12h5.271v-1.133h-3.954v-7.594h-1.317V58zm7.973 0h5.523v-1.133h-4.206v-2.672h3.869v-1.13h-3.869v-2.659h4.155v-1.133h-5.472V58zm9.194-8.727h-1.424L229.153 58h1.521l3.141-8.727h-1.423l-2.429 7.108h-.098l-2.429-7.108zM236.275 58h5.523v-1.133h-4.206v-2.672h3.869v-1.13h-3.869v-2.659h4.155v-1.133h-5.472V58zm8.431 0h5.271v-1.133h-3.955v-7.594h-1.316V58z" fill="#6D7D87"/><path d="M209.137 8.545h-5.058l-6.302 3.99v4.773l5.83-3.654h.149V34h5.381V8.545zm17.922 21.364c.021 2.77 1.811 5.156 5.156 5.156 3.345 0 5.22-2.386 5.199-5.156v-1.15c.021-2.813-1.811-5.157-5.199-5.157-3.303 0-5.135 2.387-5.156 5.157v1.15zm-11.421-12.486c.022 2.77 1.811 5.114 5.156 5.114 3.346 0 5.221-2.301 5.199-5.114v-1.15c.022-2.813-1.811-5.156-5.199-5.156-3.259 0-5.134 2.343-5.156 5.156v1.15zM216.831 34h3.026l15-21.818h-3.026l-15 21.818zm13.935-5.241c.021-.853.32-1.833 1.449-1.833 1.214 0 1.47.98 1.449 1.833v1.15c.021.852-.277 1.79-1.449 1.79-1.129 0-1.428-.98-1.449-1.79v-1.15zm-11.378-12.486c.022-.81.277-1.833 1.406-1.833 1.215 0 1.471.98 1.449 1.833v1.15c.022.853-.277 1.79-1.449 1.79-1.086 0-1.384-.937-1.406-1.79v-1.15z" fill="#FFA03F"/><path opacity=".25" fill-rule="evenodd" clip-rule="evenodd" d="M2.081 114.513v1h35v-1h-34V72h-1v42.513zM152.487 73v-1H100.46v1h51.027v14.135h1V73zm97.432 79.351v1h-35v-1h34V72h1v80.351z" fill="#6D7D87"/><g filter="url(#filter0_d)"><path d="M113.216 138.041v25.601l73.792-10.374v-25.434l-73.792 10.207z" fill="#8B5CF9"/><path d="M113.216 138.041l73.959-10.207c-7.362-16.901-31.792-29.952-62.246-32.63l-11.713 42.837z" fill="url(#paint0_linear)"/><path d="M133.127 141.388v30.621l41.331 36.31v-30.454l-41.331-36.477z" fill="#FFB160"/><path d="M179.478 158.622l-5.02 19.243v30.621c20.916-7.697 34.637-21.083 34.637-36.31v-29.785l-29.617 16.231z" fill="#FFA03F"/><path d="M174.458 177.865c20.916-7.864 34.804-21.251 34.804-36.478 0-3.513-.836-7.027-2.175-10.207l-73.959 10.207 41.33 36.478z" fill="url(#paint1_linear)"/><path d="M154.546 174.351l-117.465-36.31v30.621c0 23.928 34.135 43.338 76.135 43.338 15.227 0 29.449-2.51 41.33-7.028v-30.621z" fill="url(#paint2_linear)"/><path d="M124.929 95.205a134.233 134.233 0 00-11.713-.502c-42 0-76.135 19.41-76.135 43.338s34.135 43.338 76.135 43.338c15.227 0 29.45-2.51 41.33-7.028l-41.33-36.31 11.713-42.836z" fill="#62DCF7"/></g><defs><linearGradient id="paint0_linear" x1="170.894" y1="107.422" x2="110.327" y2="132.519" gradientUnits="userSpaceOnUse"><stop stop-color="#AF8CFF"/><stop offset="1" stop-color="#D6C2FF"/></linearGradient><linearGradient id="paint1_linear" x1="171.384" y1="138.516" x2="182.531" y2="177.78" gradientUnits="userSpaceOnUse"><stop stop-color="#FFB84F"/><stop offset="1" stop-color="#FFC891"/></linearGradient><linearGradient id="paint2_linear" x1="80.001" y1="176.141" x2="109.202" y2="140.068" gradientUnits="userSpaceOnUse"><stop stop-color="#00C6E4"/><stop offset="1" stop-color="#14DAFF"/></linearGradient><filter id="filter0_d" x="14.081" y="91.703" width="218.181" height="163.297" filterUnits="userSpaceOnUse" color-interpolation-filters="sRGB"><feFlood flood-opacity="0" result="BackgroundImageFix"/><feColorMatrix in="SourceAlpha" values="0 0 0 0 0 0 0 0 0 0 0 0 0 0 0 0 0 0 127 0"/><feMorphology radius="7" in="SourceAlpha" result="effect1_dropShadow"/><feOffset dy="20"/><feGaussianBlur stdDeviation="15"/><feColorMatrix values="0 0 0 0 0.858333 0 0 0 0 0.858333 0 0 0 0 0.858333 0 0 0 0.15 0"/><feBlend in2="BackgroundImageFix" result="effect1_dropShadow"/><feBlend in="SourceGraphic" in2="effect1_dropShadow" result="shape"/></filter></defs></svg>