<svg xmlns="http://www.w3.org/2000/svg" xmlns:xlink="http://www.w3.org/1999/xlink" width="0" height="0" style="position:absolute">
	
		<symbol id="arrow" viewBox="0 0 13 11">
			<path opacity=".55" d="M1.733 10.35A1.196 1.196 0 0 1 .865 8.33l2.68-2.811L.867 2.728a1.193 1.193 0 0 1 .037-1.69 1.2 1.2 0 0 1 1.694.038L6.064 4.69c.442.461.443 1.187.003 1.65L2.601 9.977a1.198 1.198 0 0 1-.868.372z" fill="#fff"></path><path opacity=".2" d="M8.162 10.35a1.196 1.196 0 0 1-.868-2.019L9.973 5.52 7.297 2.728a1.193 1.193 0 0 1 .037-1.69 1.2 1.2 0 0 1 1.693.038l3.466 3.615c.442.461.443 1.187.003 1.65L9.03 9.977a1.198 1.198 0 0 1-.868.372z" fill="#fff"></path>
		</symbol>
	
		<symbol id="arrow_blue" viewBox="0 0 12 16">
			<path opacity=".2" d="M0 9.782a1.488 1.488 0 0 1 2.512-1.08l3.498 3.334 3.475-3.33a1.485 1.485 0 0 1 2.102.046 1.492 1.492 0 0 1-.046 2.107l-4.5 4.313c-.573.55-1.476.55-2.052.003L.462 10.863A1.49 1.49 0 0 1 0 9.782z" fill="#12BFE6"></path><path opacity=".55" d="M0 1.782A1.488 1.488 0 0 1 2.512.702L6.01 4.036 9.485.706a1.485 1.485 0 0 1 2.102.046 1.492 1.492 0 0 1-.046 2.107l-4.5 4.313c-.573.55-1.476.55-2.052.003L.462 2.863A1.49 1.49 0 0 1 0 1.782z" fill="#12BFE6"></path>
		</symbol>
	
		<symbol id="arrow_green" viewBox="0 0 13 16">
			<path opacity=".2" d="M.646 6.095a1.488 1.488 0 0 0 2.512 1.08l3.499-3.334 3.475 3.33a1.485 1.485 0 0 0 2.102-.046 1.492 1.492 0 0 0-.047-2.107L7.688.705A1.486 1.486 0 0 0 5.636.702L1.109 5.014a1.49 1.49 0 0 0-.463 1.081z" fill="#33C9AE"></path><path opacity=".55" d="M.646 14.095a1.488 1.488 0 0 0 2.512 1.08l3.499-3.334 3.475 3.33a1.485 1.485 0 0 0 2.102-.046 1.492 1.492 0 0 0-.047-2.107L7.688 8.705a1.486 1.486 0 0 0-2.052-.003l-4.527 4.312a1.49 1.49 0 0 0-.463 1.081z" fill="#33C9AE"></path>
		</symbol>
	
		<symbol id="burger" viewBox="0 0 22 15">
			<path fill-rule="evenodd" clip-rule="evenodd" d="M20.9 12.857c.608 0 1.1.48 1.1 1.072C22 14.52 21.508 15 20.9 15H1.1C.492 15 0 14.52 0 13.929c0-.592.492-1.072 1.1-1.072h19.8zm0-6.428c.608 0 1.1.48 1.1 1.071 0 .592-.492 1.071-1.1 1.071H1.1C.492 8.571 0 8.091 0 7.5c0-.592.492-1.071 1.1-1.071h19.8zM20.9 0c.608 0 1.1.48 1.1 1.071 0 .592-.492 1.072-1.1 1.072H1.1c-.608 0-1.1-.48-1.1-1.072C0 .48.492 0 1.1 0h19.8z" fill="#6D7D87"></path>
		</symbol>
	
		<symbol id="calendar" viewBox="0 0 40 40">
			<path d="M30.156 17.969a1.563 1.563 0 1 0 0-3.125 1.563 1.563 0 0 0 0 3.125z" fill="#12BFE6"></path><path d="M33.75 3.125h-2.031V1.562a1.563 1.563 0 0 0-3.125 0v1.563h-7.11V1.562a1.563 1.563 0 0 0-3.125 0v1.563h-7.03V1.562a1.562 1.562 0 1 0-3.126 0v1.563H6.25A6.257 6.257 0 0 0 0 9.375V33.75A6.257 6.257 0 0 0 6.25 40h11.953a1.562 1.562 0 1 0 0-3.125H6.25a3.129 3.129 0 0 1-3.125-3.125V9.375A3.129 3.129 0 0 1 6.25 6.25h1.953v1.563a1.562 1.562 0 1 0 3.125 0V6.25h7.031v1.563a1.562 1.562 0 1 0 3.125 0V6.25h7.11v1.563a1.562 1.562 0 1 0 3.125 0V6.25h2.031a3.129 3.129 0 0 1 3.125 3.125v8.906a1.563 1.563 0 1 0 3.125 0V9.375a6.257 6.257 0 0 0-6.25-6.25z" fill="#12BFE6"></path><path d="M30.547 21.094c-5.213 0-9.453 4.24-9.453 9.453 0 5.212 4.24 9.453 9.453 9.453C35.759 40 40 35.76 40 30.547c0-5.213-4.24-9.453-9.453-9.453zm0 15.781a6.335 6.335 0 0 1-6.328-6.328 6.335 6.335 0 0 1 6.328-6.328 6.335 6.335 0 0 1 6.328 6.328 6.335 6.335 0 0 1-6.328 6.328z" fill="#12BFE6"></path><path d="M32.813 28.984h-.704v-1.64a1.563 1.563 0 1 0-3.125 0v3.203c0 .863.7 1.562 1.563 1.562h2.265a1.562 1.562 0 1 0 0-3.125zM23.36 17.969a1.563 1.563 0 1 0 0-3.125 1.563 1.563 0 0 0 0 3.125zM16.563 24.766a1.562 1.562 0 1 0 0-3.125 1.562 1.562 0 0 0 0 3.125zM9.766 17.969a1.563 1.563 0 1 0 0-3.125 1.563 1.563 0 0 0 0 3.125zM9.766 24.766a1.562 1.562 0 1 0 0-3.125 1.562 1.562 0 0 0 0 3.125zM9.766 31.563a1.562 1.562 0 1 0 0-3.125 1.562 1.562 0 0 0 0 3.125zM16.563 31.563a1.563 1.563 0 1 0 0-3.126 1.563 1.563 0 0 0 0 3.125zM16.563 17.969a1.563 1.563 0 1 0 0-3.125 1.563 1.563 0 0 0 0 3.125z" fill="#12BFE6"></path>
		</symbol>
	
		<symbol id="close" viewBox="0 0 15 15">
			<path d="M8.827 7.5l5.898-5.899A.938.938 0 1 0 13.4.275L7.5 6.174 1.601.274A.938.938 0 1 0 .275 1.602l5.899 5.9-5.9 5.898a.938.938 0 1 0 1.327 1.326l5.9-5.899 5.898 5.9a.935.935 0 0 0 1.326 0 .937.937 0 0 0 0-1.327L8.827 7.5z" fill="#6D7D87"></path>
		</symbol>
	
		<symbol id="contacts" viewBox="0 0 25 21">
			<path d="M15.278 6.157V.823L25 10.157l-9.722 9.333v-5.466c-6.945 0-11.806 2.133-15.278 6.8C1.389 14.156 5.556 7.49 15.278 6.156z" fill="#F29FFF"></path>
		</symbol>
	
		<symbol id="contests" viewBox="0 0 19 28">
			<path d="M18.514 14.973a1.295 1.295 0 0 1-.88 1.515l-2.875.906-1.178.376-1.412 1.295-1.709 1.58a1.359 1.359 0 0 1-.88.336 1.295 1.295 0 0 1-.881-.337l-1.71-1.58-1.41-1.294-1.179-.376-2.874-.906a1.294 1.294 0 0 1-.881-1.515l.92-4.144-.92-4.143a1.295 1.295 0 0 1 .88-1.515l4.053-1.295L8.7 1.001a1.295 1.295 0 0 1 1.761 0l3.12 2.875 4.054 1.295a1.295 1.295 0 0 1 .88 1.515l-.92 4.143.92 4.144z" fill="url(#a)"></path><path d="M14.76 18.754v7.614a1.294 1.294 0 0 1-.687 1.14 1.295 1.295 0 0 1-1.295-.065L9.58 25.332l-3.173 2.11A1.296 1.296 0 0 1 4.4 26.369v-7.614l.518.168 2.914 2.694a2.59 2.59 0 0 0 3.509 0l2.9-2.668.518-.194z" fill="url(#b)"></path><defs><linearGradient id="a" x1="9.624" y1="3.85" x2="17.225" y2="18.333" gradientUnits="userSpaceOnUse"><stop stop-color="#FFB84F"></stop><stop offset="1" stop-color="#FFC891"></stop></linearGradient><linearGradient id="b" x1="9.606" y1="20.153" x2="12.384" y2="27.138" gradientUnits="userSpaceOnUse"><stop stop-color="#FFB84F"></stop><stop offset="1" stop-color="#FFC891"></stop></linearGradient></defs>
		</symbol>
	
		<symbol id="desktop" viewBox="0 0 27 25">
			<path d="M24 .363H2.4a2.4 2.4 0 0 0-2.4 2.4v14.4a2.4 2.4 0 0 0 2.4 2.4h8.4l-2.4 3.6v1.2H18v-1.2l-2.4-3.6H24a2.4 2.4 0 0 0 2.4-2.4v-14.4a2.4 2.4 0 0 0-2.4-2.4zm0 14.4H2.4v-12H24v12z" fill="url(#a)"></path><defs><linearGradient id="a" x1="13.266" y1="4.134" x2="21.064" y2="22.664" gradientUnits="userSpaceOnUse"><stop stop-color="#FFB84F"></stop><stop offset="1" stop-color="#FFC891"></stop></linearGradient></defs>
		</symbol>
	
		<symbol id="done" viewBox="0 0 25 18">
			<path d="M10.929 17.179a2.804 2.804 0 0 1-3.965 0L.821 11.036a2.803 2.803 0 1 1 3.965-3.964l3.66 3.66a.71.71 0 0 0 1.001 0L19.357.82a2.804 2.804 0 0 1 3.966 3.964L10.929 17.18z" fill="url(#a)"></path><defs><linearGradient id="a" x1="12.132" y1="2.828" x2="17.177" y2="17.446" gradientUnits="userSpaceOnUse"><stop stop-color="#FFB84F"></stop><stop offset="1" stop-color="#FFC891"></stop></linearGradient></defs>
		</symbol>
	
		<symbol id="done_blue" viewBox="0 0 17 12">
			<path d="M7.286 11.453a1.87 1.87 0 0 1-2.643 0L.547 7.357a1.869 1.869 0 1 1 2.644-2.643l2.44 2.44a.473.473 0 0 0 .667 0L12.905.547a1.87 1.87 0 0 1 2.643 2.643l-8.262 8.263z" fill="url(#a)"></path><defs><linearGradient id="a" x1="5.881" y1="6.182" x2="10.721" y2="1.133" gradientUnits="userSpaceOnUse"><stop stop-color="#00C6E4"></stop><stop offset="1" stop-color="#14DAFF"></stop></linearGradient></defs>
		</symbol>
	
		<symbol id="done_green" viewBox="0 0 17 12">
			<path d="M7.286 11.453a1.87 1.87 0 0 1-2.643 0L.547 7.357a1.869 1.869 0 1 1 2.644-2.643l2.44 2.44a.473.473 0 0 0 .667 0L12.905.547a1.87 1.87 0 0 1 2.643 2.643l-8.262 8.263z" fill="url(#a)"></path><defs><linearGradient id="a" x1="9.111" y1="5.653" x2="5.477" y2="-.769" gradientUnits="userSpaceOnUse"><stop stop-color="#00DFAD"></stop><stop offset="1" stop-color="#66FFDA"></stop></linearGradient></defs>
		</symbol>
	
		<symbol id="invested" viewBox="0 0 40 40">
			<path d="M16.685 30.58A4.673 4.673 0 0 0 20 31.95a4.673 4.673 0 0 0 3.31-1.366l5.913-5.84a1.563 1.563 0 1 0-2.196-2.223l-5.915 5.843-.007.007c-.61.609-1.6.609-2.21 0l-5.836-5.842a1.562 1.562 0 1 0-2.211 2.208l5.837 5.843z" fill="#E88BF7"></path><path d="M20 24.102c.863 0 1.563-.7 1.563-1.563V1.562a1.562 1.562 0 1 0-3.125 0V22.54c0 .863.699 1.563 1.562 1.563zM38.438 36.875H1.562a1.562 1.562 0 1 0 0 3.125h36.876a1.562 1.562 0 1 0 0-3.125z" fill="#E88BF7"></path>
		</symbol>
	
		<symbol id="investors" viewBox="0 0 40 40">
			<path d="M20 9.375a4.693 4.693 0 0 0 4.688-4.688A4.693 4.693 0 0 0 20 0a4.693 4.693 0 0 0-4.688 4.688A4.693 4.693 0 0 0 20 9.375zm0-6.25c.861 0 1.563.701 1.563 1.563 0 .861-.701 1.562-1.563 1.562a1.564 1.564 0 0 1-1.563-1.563c0-.861.701-1.562 1.563-1.562zm8.594 21.726a5.497 5.497 0 0 1-2.655 4.69l-.113.067a2.356 2.356 0 0 0-1.139 2.01v6.82a1.562 1.562 0 1 1-3.125 0v-6.82a5.497 5.497 0 0 1 2.655-4.69l.113-.067a2.355 2.355 0 0 0 1.139-2.01v-6.96c0-3.229-2.996-3.907-5.508-3.907-2.513 0-5.508.678-5.508 3.907v6.938c0 .826.443 1.6 1.155 2.02l.133.078a5.49 5.49 0 0 1 2.697 4.714v6.797a1.562 1.562 0 1 1-3.125 0V31.64c0-.827-.443-1.601-1.156-2.02l-.133-.078a5.49 5.49 0 0 1-2.696-4.715v-6.937c0-2.354.95-4.251 2.748-5.487 1.471-1.01 3.506-1.545 5.885-1.545s4.413.534 5.884 1.545c1.798 1.236 2.749 3.133 2.749 5.487v6.96zM7.812 12.5A4.693 4.693 0 0 0 12.5 7.812a4.693 4.693 0 0 0-4.688-4.687 4.693 4.693 0 0 0-4.687 4.688A4.693 4.693 0 0 0 7.813 12.5zm0-6.25c.862 0 1.563.701 1.563 1.563 0 .861-.701 1.562-1.563 1.562A1.564 1.564 0 0 1 6.25 7.812c0-.861.701-1.562 1.563-1.562zM12.5 32.969v5.468a1.562 1.562 0 1 1-3.125 0V32.97a1.562 1.562 0 1 1 3.125 0zM9.219 15.586c0 .863-.7 1.562-1.563 1.562-4.531 0-4.531 2.129-4.531 2.93v6.64c0 .735.35 1.435.938 1.876a5.495 5.495 0 0 1 2.187 4.375v5.468a1.562 1.562 0 1 1-3.125 0V32.97c0-.734-.35-1.435-.938-1.875A5.495 5.495 0 0 1 0 26.719v-6.64c0-2.113.867-3.782 2.508-4.827 1.28-.815 3.012-1.229 5.148-1.229.863 0 1.563.7 1.563 1.563zM32.187 12.5a4.693 4.693 0 0 0 4.688-4.688 4.693 4.693 0 0 0-4.688-4.687A4.693 4.693 0 0 0 27.5 7.813a4.693 4.693 0 0 0 4.688 4.687zm0-6.25c.862 0 1.563.701 1.563 1.563 0 .861-.701 1.562-1.563 1.562a1.564 1.564 0 0 1-1.562-1.563c0-.861.701-1.562 1.563-1.562zm-1.562 26.719v5.468a1.562 1.562 0 1 1-3.125 0V32.97a1.562 1.562 0 1 1 3.125 0zM40 20.079v6.64a5.496 5.496 0 0 1-2.188 4.375 2.354 2.354 0 0 0-.937 1.875v5.468a1.562 1.562 0 1 1-3.125 0V32.97c0-1.712.818-3.348 2.188-4.375.587-.44.937-1.141.937-1.875v-6.64c0-.802 0-2.93-4.531-2.93a1.562 1.562 0 1 1 0-3.126c2.136 0 3.868.414 5.148 1.23C39.132 16.296 40 17.965 40 20.077z" fill="#AC8BF7"></path>
		</symbol>
	
		<symbol id="logo" viewBox="0 0 198 74">
			<path fill-rule="evenodd" clip-rule="evenodd" d="M33.215 51.994V52l24.29-30.141.205-.03-8.165-7.543L15 8l18.215 44v-.006z" fill="#fff" filter="url(#a)"></path><path d="M36.873 25.417L18.737 11.3l15.027 36.3 3.11-22.183z" fill="url(#b)"></path><path d="M36.448 25.098L33.764 47.6l20.112-24.956-17.428 2.454z" fill="url(#c)"></path><path d="M36.355 25.301l17.618-2.592-6.736-6.223L36.355 25.3z" fill="url(#d)"></path><path d="M36.355 25.301L18.737 11.3l28.5 5.186L36.355 25.3z" fill="url(#e)"></path><path d="M141.527 38.227h4.89V31.95h2.51l3.694 6.277h5.335l-4.198-6.984c2.222-.913 3.507-2.713 3.507-5.247 0-3.77-2.836-6.107-7.38-6.107h-8.358v18.338zm4.89-9.769v-4.996h2.411c2.193 0 3.369.833 3.369 2.534 0 1.701-1.176 2.462-3.369 2.462h-2.411zm35.408.6c0-6.062-4.228-9.42-9.661-9.42-5.454 0-9.652 3.358-9.652 9.42 0 6.035 4.198 9.42 9.652 9.42 5.433 0 9.661-3.358 9.661-9.42zm-4.998 0c0 3.59-1.739 5.534-4.663 5.534-2.915 0-4.663-1.944-4.663-5.534s1.748-5.533 4.663-5.533c2.924 0 4.663 1.943 4.663 5.533zm15.526-9.169h-4.89v18.338h4.89V19.889z" fill="#313131"></path><path d="M75.554 38.214h4.44l3.443-11.265h.15l3.441 11.265h4.45l5.55-18.575h-5.093l-2.892 12.199h-.158l-3.293-12.2h-4.16l-3.294 12.173h-.158l-2.883-12.172h-5.103l5.56 18.575zm31.091.264c3.759 0 6.231-1.77 6.754-4.509l-4.189-.117c-.354.925-1.287 1.424-2.481 1.424-1.754 0-2.836-1.134-2.836-2.84v-.117h9.552v-1.107c0-4.59-2.873-7.11-6.94-7.11-4.328 0-7.108 2.883-7.108 7.2 0 4.463 2.742 7.175 7.248 7.175zm-2.752-8.735c.065-1.388 1.194-2.44 2.705-2.44 1.502 0 2.584 1.016 2.603 2.44h-5.308zm19.071-10.104h-4.562v18.575h4.562V19.64zm10.092 0h-4.562v18.575h4.562V19.64z" fill="#6D7D87"></path><defs><filter id="a" x="0" y="0" width="72.71" height="74" filterUnits="userSpaceOnUse" color-interpolation-filters="sRGB"><feFlood flood-opacity="0" result="BackgroundImageFix"></feFlood><feColorMatrix in="SourceAlpha" values="0 0 0 0 0 0 0 0 0 0 0 0 0 0 0 0 0 0 127 0"></feColorMatrix><feOffset dy="7"></feOffset><feGaussianBlur stdDeviation="7.5"></feGaussianBlur><feColorMatrix values="0 0 0 0 0.329427 0 0 0 0 0.37221 0 0 0 0 0.479167 0 0 0 0.15 0"></feColorMatrix><feBlend in2="BackgroundImageFix" result="effect1_dropShadow"></feBlend><feBlend in="SourceGraphic" in2="effect1_dropShadow" result="shape"></feBlend></filter><linearGradient id="b" x1="25.364" y1="30" x2="35.258" y2="26.155" gradientUnits="userSpaceOnUse"><stop stop-color="#00C6E4"></stop><stop offset="1" stop-color="#14DAFF"></stop></linearGradient><linearGradient id="c" x1="45.149" y1="34.4" x2="36.348" y2="25.057" gradientUnits="userSpaceOnUse"><stop stop-color="#00DFAD"></stop><stop offset="1" stop-color="#66FFDA"></stop></linearGradient><linearGradient id="d" x1="50.095" y1="19" x2="36.352" y2="25.592" gradientUnits="userSpaceOnUse"><stop stop-color="#AF8CFF"></stop><stop offset="1" stop-color="#D6C2FF"></stop></linearGradient><linearGradient id="e" x1="33.058" y1="13.5" x2="35.81" y2="25.599" gradientUnits="userSpaceOnUse"><stop stop-color="#FFB84F"></stop><stop offset="1" stop-color="#FFC891"></stop></linearGradient></defs>
		</symbol>
	
		<symbol id="menu_logo" viewBox="0 0 25 25">
			<path d="M12.5 9.722L0 0l10.357 25L12.5 9.722z" fill="url(#a)"></path><path d="M12.207 9.503L10.357 25 24.219 7.812 12.207 9.504z" fill="url(#b)"></path><path d="M12.143 9.643l12.143-1.786-4.643-4.286-7.5 6.072z" fill="url(#c)"></path><path d="M12.143 9.643L0 0l19.643 3.571-7.5 6.072z" fill="url(#d)"></path><defs><linearGradient id="a" x1="4.567" y1="12.879" x2="11.386" y2="10.227" gradientUnits="userSpaceOnUse"><stop stop-color="#00C6E4"></stop><stop offset="1" stop-color="#14DAFF"></stop></linearGradient><linearGradient id="b" x1="18.203" y1="15.909" x2="12.143" y2="9.47" gradientUnits="userSpaceOnUse"><stop stop-color="#00DFAD"></stop><stop offset="1" stop-color="#66FFDA"></stop></linearGradient><linearGradient id="c" x1="21.613" y1="5.303" x2="12.143" y2="9.848" gradientUnits="userSpaceOnUse"><stop stop-color="#AF8CFF"></stop><stop offset="1" stop-color="#D6C2FF"></stop></linearGradient><linearGradient id="d" x1="9.87" y1="1.515" x2="11.764" y2="9.848" gradientUnits="userSpaceOnUse"><stop stop-color="#FFB84F"></stop><stop offset="1" stop-color="#FFC891"></stop></linearGradient></defs>
		</symbol>
	
		<symbol id="mobile" viewBox="0 0 19 32">
			<path d="M14.807 0H3.526A3.527 3.527 0 0 0 0 3.526V27.5a3.527 3.527 0 0 0 3.526 3.525h11.281a3.527 3.527 0 0 0 3.526-3.525V3.526A3.527 3.527 0 0 0 14.807 0zm-5.64 29.615A2.112 2.112 0 0 1 7.05 27.5c0-1.171.945-2.116 2.116-2.116 1.17 0 2.115.945 2.115 2.116 0 1.17-.945 2.115-2.115 2.115zm6.346-5.641H2.82V4.231h12.693v19.743z" fill="url(#a)"></path><defs><linearGradient id="a" x1="9.212" y1="4.875" x2="22.901" y2="22.347" gradientUnits="userSpaceOnUse"><stop stop-color="#FFB84F"></stop><stop offset="1" stop-color="#FFC891"></stop></linearGradient></defs>
		</symbol>
	
		<symbol id="mobile_user" viewBox="0 0 26 26">
			<path d="M20.484 7.524c0-4.138-3.366-7.504-7.504-7.504S5.476 3.386 5.476 7.524a7.502 7.502 0 0 0 3.258 6.184 12.93 12.93 0 0 0-4.932 3.094A12.895 12.895 0 0 0 0 25.98h2.028c0-6.039 4.913-10.952 10.952-10.952 4.138 0 7.504-3.366 7.504-7.504zm-12.98 0a5.482 5.482 0 0 1 5.476-5.476 5.482 5.482 0 0 1 5.476 5.476A5.482 5.482 0 0 1 12.98 13a5.482 5.482 0 0 1-5.476-5.476z" fill="#6D7D87"></path><path d="M20.89 15.84a5.09 5.09 0 0 0-4.055 2.028h-6.253l-2.571 2.571v1l2.58 2.513h6.244a5.09 5.09 0 0 0 4.055 2.028 5.076 5.076 0 0 0 5.07-5.07 5.076 5.076 0 0 0-5.07-5.07zm0 8.112a3.054 3.054 0 0 1-2.635-1.522l-.293-.506h-2.309l-1.468-1.395-1.324 1.395h-1.446l-1.023-.997 1.03-1.031h6.54l.293-.506a3.054 3.054 0 0 1 2.635-1.522 3.046 3.046 0 0 1 3.042 3.042 3.046 3.046 0 0 1-3.042 3.042z" fill="#6D7D87"></path><path d="M21.904 21.924a1.014 1.014 0 1 0 0-2.028 1.014 1.014 0 0 0 0 2.028z" fill="#6D7D87"></path>
		</symbol>
	
		<symbol id="question" viewBox="0 0 18 28">
			<path d="M7.531 28a3.281 3.281 0 1 0 0-6.563 3.281 3.281 0 0 0 0 6.563z" fill="url(#a)"></path><path d="M8.531 0C3.827 0 0 3.827 0 8.531v.82h6.563v-.82A1.97 1.97 0 0 1 8.53 6.562a1.97 1.97 0 1 1 1.272 3.471L5.25 13.906v5.892h6.563v-2.858l2.24-1.905a8.52 8.52 0 0 0 3.01-6.503C17.063 3.827 13.235 0 8.53 0z" fill="url(#b)"></path><defs><linearGradient id="a" x1="7.548" y1="22.469" x2="9.821" y2="27.38" gradientUnits="userSpaceOnUse"><stop stop-color="#FFB84F"></stop><stop offset="1" stop-color="#FFC891"></stop></linearGradient><linearGradient id="b" x1="8.574" y1="3.111" x2="16.074" y2="17.074" gradientUnits="userSpaceOnUse"><stop stop-color="#FFB84F"></stop><stop offset="1" stop-color="#FFC891"></stop></linearGradient></defs>
		</symbol>
	
		<symbol id="reward" viewBox="0 0 41 40">
			<path d="M38.44 40H1.563a1.562 1.562 0 1 1 0-3.125H38.44a1.563 1.563 0 0 1 0 3.125zm-6.942-28.195c.61-.61.609-1.6-.002-2.21l-8.239-8.224a4.694 4.694 0 0 0-6.63.001L8.502 9.52a1.563 1.563 0 0 0 2.214 2.207l8.12-8.146a1.552 1.552 0 0 1 1.106-.458c.417 0 .81.162 1.105.458l8.24 8.226c.305.305.705.457 1.104.457.4 0 .801-.153 1.106-.459zm-10.012 19.6V9.374a1.563 1.563 0 0 0-3.126 0v22.033a1.562 1.562 0 1 0 3.126 0z" fill="#33C9AE"></path>
		</symbol>
	
		<symbol id="start" viewBox="0 0 21 23">
			<path d="M17.036 7.412l3.74-4.986a.674.674 0 0 0-.54-1.078H2.716a.674.674 0 0 0-.673.673v10.782c0 .372.302.674.674.674h17.52a.674.674 0 0 0 .538-1.079l-3.74-4.986z" fill="url(#a)"></path><path d="M2.717 23H1.369a.674.674 0 0 1-.674-.674V.674C.695.302.997 0 1.37 0h1.348c.372 0 .674.302.674.674v21.652a.674.674 0 0 1-.674.674z" fill="url(#b)"></path><defs><linearGradient id="a" x1="11.524" y1="3.253" x2="14.537" y2="13.38" gradientUnits="userSpaceOnUse"><stop stop-color="#FFB84F"></stop><stop offset="1" stop-color="#FFC891"></stop></linearGradient><linearGradient id="b" x1="2.05" y1="3.614" x2="7.022" y2="4.873" gradientUnits="userSpaceOnUse"><stop stop-color="#FFB84F"></stop><stop offset="1" stop-color="#FFC891"></stop></linearGradient></defs>
		</symbol>
	
		<symbol id="telegram" viewBox="0 0 21 17">
			<path d="M7.9 11.204l-.333 4.746c.477 0 .683-.207.93-.456l2.235-2.163 4.63 3.435c.848.48 1.446.227 1.675-.792l3.04-14.426c.27-1.272-.454-1.77-1.281-1.458L.935 7.02c-1.22.48-1.2 1.168-.207 1.48l4.566 1.439L15.9 3.213c.499-.335.953-.15.58.186L7.9 11.204z" fill="#62DCF7"></path>
		</symbol>
	
		<symbol id="telegram-menu" viewBox="0 0 24 20">
			<path d="M9.295 13.182l-.392 5.584c.56 0 .803-.244 1.094-.537l2.629-2.545 5.446 4.041c.999.564 1.703.267 1.972-.93l3.575-16.973C23.938.324 23.087-.26 22.114.106L1.1 8.258C-.334 8.822-.313 9.632.856 10l5.372 1.693 12.479-7.91c.587-.395 1.12-.177.682.217L9.295 13.182z" fill="#62DCF7"></path>
		</symbol>
	
		<symbol id="tron" viewBox="0 0 35 36">
			<path opacity=".8" d="M0 0c.25.043.465.082.683.122.904.168 1.809.333 2.71.501.965.18 1.93.355 2.895.534.897.164 1.798.333 2.695.497l2.696.494c.904.169 1.809.333 2.71.502.908.168 1.82.336 2.727.505l2.695.494c.898.164 1.795.333 2.696.497.904.169 1.809.333 2.713.502.6.11 1.201.225 1.802.333a.44.44 0 0 1 .222.114l4.847 4.62 1.952 1.858c.046.043.1.075.157.118C27.55 19.805 20.927 27.89 14.281 36 9.52 23.99 4.765 12.01 0 0zm14.195 30.676l.047-.011c.036-.283.071-.566.104-.852.075-.613.146-1.229.221-1.84.075-.627.15-1.25.229-1.877.075-.609.147-1.218.218-1.823l.225-1.84c.075-.612.147-1.228.218-1.84l.226-1.859c.075-.612.146-1.228.221-1.84.086-.71.172-1.422.261-2.13.018-.144-.014-.237-.132-.337-1.848-1.53-3.69-3.062-5.534-4.594-2.205-1.83-4.408-3.66-6.613-5.493a3.78 3.78 0 0 0-.14-.111c-.01.007-.021.018-.032.025l10.481 26.422zm1.945.014a.146.146 0 0 1 .04.025c4.79-5.844 9.576-11.687 14.367-17.535-.008-.01-.011-.021-.018-.032-.061.007-.122.01-.183.022-.15.028-.303.06-.454.086-1.358.247-2.72.49-4.078.734-1.423.258-2.842.519-4.262.777-1.14.207-2.28.411-3.42.62-.144.024-.147.024-.165.164-.057.444-.11.884-.165 1.328-.075.609-.146 1.218-.218 1.823-.075.626-.15 1.25-.228 1.876-.076.609-.147 1.218-.219 1.823l-.225 1.858c-.075.612-.146 1.228-.221 1.84l-.226 1.859c-.075.626-.153 1.25-.228 1.876l-.097.856zm8.462-24.195c0-.014-.004-.032-.004-.046-6.495-1.2-12.99-2.396-19.486-3.592-.007.015-.01.025-.018.04 3.975 3.305 7.954 6.606 11.94 9.918a8757.35 8757.35 0 0 1 7.568-6.32zm2.105.71c-.043.032-.078.053-.114.085l-7.032 5.876a.011.011 0 0 0 0 .014c0 .004.004.008.018.03 3.747-.681 7.504-1.362 11.26-2.046-.074-.125-3.82-3.716-4.132-3.96z"></path>
		</symbol>
	
		<symbol id="user" viewBox="0 0 14 17">
			<g opacity=".7" fill="#fff"><path d="M6.61 8.314c1.934 0 3.5-1.861 3.5-4.157C10.11 1.861 9.597 0 6.61 0c-2.985 0-3.5 1.861-3.5 4.157 0 2.296 1.568 4.157 3.5 4.157zM0 14.661c0-.14 0-.039 0 0zM13.221 14.77c.002-.038 0-.265 0 0z"></path><path d="M13.215 14.494c-.065-4-.6-5.14-4.687-5.86 0 0-.575.716-1.916.716s-1.917-.717-1.917-.717C.652 9.347.085 10.47.011 14.363c-.006.319-.009.335-.01.298v.42S.976 17 6.612 17c5.638 0 6.611-1.918 6.611-1.918v-.311a2.619 2.619 0 0 1-.007-.277z"></path></g>
		</symbol>
	
		<symbol id="withdraw" viewBox="0 0 19 28">
			<path d="M17.862 11.473a2.421 2.421 0 0 0-2.272-1.52H8.406l6.229-6.233a.82.82 0 0 0 0-1.16L12.315.24a.82.82 0 0 0-1.16 0L.725 10.673a2.422 2.422 0 0 0-.531 2.68 2.421 2.421 0 0 0 2.271 1.521H9.65l-5.762 5.762-1.2-2a.821.821 0 0 0-1.516.306l-1.16 8.12a.822.822 0 0 0 .928.93l8.122-1.16a.821.821 0 0 0 .306-1.516l-2-1.2 9.962-9.963c.717-.715.92-1.742.532-2.68z" fill="url(#a)"></path><defs><linearGradient id="a" x1="9.073" y1="4.4" x2="21.129" y2="21.192" gradientUnits="userSpaceOnUse"><stop stop-color="#FFB84F"></stop><stop offset="1" stop-color="#FFC891"></stop></linearGradient></defs>
		</symbol>
	
</svg>
