<svg width="158" height="140" viewBox="0 0 158 140" fill="none" xmlns="http://www.w3.org/2000/svg">
<g opacity="0.25">
<path d="M145.365 62.5158C145.324 63.4849 145.283 64.454 145.18 65.4024C143.181 94.2888 116.75 120.247 86.3016 133.567C82.7994 135.093 79.1942 136.495 75.5272 137.67C72.8285 138.557 70.0885 139.34 67.328 140C67.328 140 67.8224 138.866 67.74 138.268C67.6576 137.567 65.5151 136.371 65.5151 136.371C68.8319 136.124 72.1898 135.567 75.5272 134.763C79.153 133.897 82.7582 132.742 86.3016 131.34C113.062 120.887 148.62 92.4332 144.355 53.8973C144.232 52.9489 144.108 52.0005 143.943 51.052L143.82 50.351C143.779 50.1242 143.737 49.8768 143.696 49.6499L143.408 48.2273C143.325 47.8149 142.295 43.1139 140.565 38.516L140.05 37.1552C137.743 31.382 134.755 25.8563 130.841 20.5367L129.955 19.3615C129.667 18.9697 129.337 18.5986 129.028 18.2069C128.719 17.8151 128.41 17.4234 128.081 17.0522C125.526 14.0213 122.704 11.176 119.572 8.6193C116.462 6.06262 113.021 3.83583 109.354 2.02141L109.56 1.6709C112.197 3.05233 115.102 4.66057 117.43 6.47499L118.645 7.40282L118.954 7.62962L119.243 7.87704L119.84 8.35126C122.992 10.9079 125.835 13.7739 128.41 16.8254C128.74 17.1966 129.049 17.5883 129.358 17.9801C129.667 18.3718 129.997 18.7429 130.285 19.1553L131.171 20.3512C133.787 23.8976 136.197 27.8563 138.072 31.6913C138.958 33.4439 139.741 35.2377 140.482 37.0315L141.018 38.3923C142.707 42.784 143.82 47.4438 143.943 48.1448L144.232 49.5675C144.294 49.7943 144.335 50.0417 144.376 50.2891L144.5 51.0108C144.685 51.9592 144.809 52.9283 144.932 53.8767C145.427 57.8767 145.406 59.6911 145.365 62.5158Z" fill="#5DB098"/>
<path d="M128.369 12.0217C128.863 16.331 130.326 20.1247 132.366 20.8051C134.385 21.4649 136.506 18.6402 136.424 14.166C136.362 10.764 133.519 7.15576 132.057 5.69185C131.665 5.27948 131.027 5.13515 130.779 5.40319C129.79 6.37226 127.998 8.76399 128.369 12.0217Z" fill="#5DB098"/>
<path d="M137.722 22.9083C137.166 27.3412 137.701 31.4031 139.576 32.3928C141.43 33.3824 144.211 30.8258 145.159 26.2691C145.901 22.8258 143.964 18.7434 142.872 17.032C142.584 16.5578 141.986 16.331 141.677 16.5578C140.482 17.4032 138.155 19.5475 137.722 22.9083Z" fill="#5DB098"/>
<path d="M144.417 35.3202C142.831 39.7325 142.419 43.9387 144.067 45.2376C145.674 46.5366 149.032 44.3923 151.051 39.8975C152.596 36.4954 151.607 32.0418 150.907 30.1656C150.721 29.6295 150.206 29.3202 149.815 29.5058C148.455 30.1449 145.633 31.98 144.417 35.3202Z" fill="#5DB098"/>
<path d="M148.208 48.9906C145.612 53.238 144.252 57.4648 145.571 59.0524C146.889 60.64 150.721 58.9905 153.77 54.7225C156.098 51.5061 156.119 46.7845 155.871 44.7432C155.81 44.1659 155.356 43.7742 154.944 43.8979C153.42 44.3721 150.186 45.7948 148.208 48.9906Z" fill="#5DB098"/>
<path d="M148.847 63.5883C145.283 67.5058 142.934 71.6089 143.882 73.4645C144.829 75.3202 149.032 74.2892 153.07 70.413C156.139 67.4852 157.252 62.6398 157.478 60.5161C157.561 59.9182 157.19 59.4234 156.757 59.4852C155.109 59.712 151.545 60.6398 148.847 63.5883Z" fill="#5DB098"/>
<path d="M146.065 78.7014C141.574 82.1241 138.237 85.9178 138.731 88.0209C139.205 90.1034 143.655 89.7735 148.62 86.4745C152.39 83.9797 154.656 79.1756 155.377 77.0107C155.583 76.4128 155.356 75.8354 154.883 75.8354C153.235 75.7736 149.465 76.1241 146.065 78.7014Z" fill="#5DB098"/>
<path d="M139.617 93.7736C134.282 96.5159 129.976 99.856 129.873 102.103C129.79 104.33 134.323 104.804 140.132 102.268C144.541 100.372 148.043 95.7942 149.3 93.6705C149.671 93.0932 149.568 92.454 149.114 92.3716C147.466 92.0417 143.634 91.7324 139.617 93.7736Z" fill="#5DB098"/>
<path d="M129.152 108.248C123.075 110.124 117.78 112.784 116.997 115.114C116.235 117.403 120.664 118.743 127.236 117.176C132.221 116 137.021 111.877 138.855 109.897C139.37 109.361 139.452 108.681 139.02 108.516C137.475 107.856 133.746 106.846 129.152 108.248Z" fill="#5DB098"/>
<path d="M120.046 13.4443C125.032 14.4133 128.925 17.1762 128.699 18.9906C128.472 20.8256 124.558 20.9081 119.964 19.836C116.503 19.0112 113.495 16.8051 112.115 15.7948C111.744 15.5061 111.703 15.0731 112.053 14.8669C113.268 14.1453 116.276 12.702 120.046 13.4443Z" fill="#5DB098"/>
<path d="M116.688 3.19677C121.591 6.51634 123.693 10.4132 122.292 11.4235C120.85 12.4544 116.709 10.4751 112.197 7.46478C108.819 5.17614 106.655 2.104 105.728 0.701943C105.481 0.310193 105.749 -0.0197013 106.305 0.000917117C108.283 0.0833908 112.98 0.681325 116.688 3.19677Z" fill="#5DB098"/>
<path d="M129.296 23.1969C133.952 24.8876 137.145 28.269 136.486 30.0628C135.827 31.8772 131.912 31.3824 127.648 29.6298C124.434 28.2896 122.024 25.6504 120.932 24.434C120.644 24.1041 120.705 23.6505 121.097 23.4855C122.477 22.9494 125.794 21.9185 129.296 23.1969Z" fill="#5DB098"/>
<path d="M136.074 34.4337C140.297 36.846 142.666 40.7841 141.595 42.5161C140.524 44.2686 136.733 43.1346 132.901 40.7017C130.017 38.846 128.287 35.8151 127.483 34.4337C127.277 34.0419 127.463 33.6089 127.875 33.5058C129.378 33.1553 132.901 32.5986 136.074 34.4337Z" fill="#5DB098"/>
<path d="M140.153 46.8664C143.799 49.9798 145.241 54.3922 143.779 55.9798C142.295 57.588 138.793 55.7942 135.538 52.7221C133.107 50.3716 132.077 47.0314 131.603 45.5056C131.48 45.0933 131.768 44.6603 132.201 44.619C133.787 44.5159 137.413 44.5159 140.153 46.8664Z" fill="#5DB098"/>
<path d="M141.348 60.207C144.253 64.0007 144.685 68.7636 142.831 70.145C140.977 71.5471 137.907 69.1141 135.373 65.4028C133.478 62.5987 133.231 59.0317 133.128 57.4028C133.107 56.9492 133.499 56.5781 133.931 56.6193C135.538 56.7637 139.164 57.341 141.348 60.207Z" fill="#5DB098"/>
<path d="M139.411 74.0621C141.41 78.4538 140.668 83.4435 138.505 84.5363C136.321 85.6497 133.87 82.5981 132.242 78.3714C131.047 75.1755 131.624 71.4848 131.912 69.7941C131.995 69.3405 132.469 69.0106 132.901 69.1137C134.446 69.5467 137.928 70.7425 139.411 74.0621Z" fill="#5DB098"/>
<path d="M134.137 87.9588C135.044 92.8247 132.984 97.8762 130.532 98.5979C128.06 99.3607 126.433 95.7525 125.917 91.1134C125.547 87.6083 127.03 83.9176 127.73 82.2475C127.936 81.7939 128.472 81.5464 128.884 81.732C130.306 82.433 133.478 84.2681 134.137 87.9588Z" fill="#5DB098"/>
<path d="M125.258 101.361C124.826 106.557 121.323 111.423 118.645 111.732C115.947 112.062 115.411 108.021 116.194 103.135C116.812 99.4438 119.284 95.9181 120.417 94.3098C120.726 93.8768 121.344 93.7119 121.694 93.9799C122.91 94.949 125.588 97.4232 125.258 101.361Z" fill="#5DB098"/>
<path d="M48.1278 1.6709C45.4908 3.05233 42.5861 4.70181 40.2581 6.53684L39.0427 7.46467L38.7337 7.69148L38.4452 7.9389L37.8478 8.43374C34.6958 11.011 31.8529 13.9182 29.2984 16.9904C28.9687 17.3615 28.6597 17.7739 28.3507 18.1656C28.0417 18.5574 27.7121 18.9491 27.4237 19.3409L26.5378 20.5367C23.9215 24.1244 21.5111 28.1037 19.6364 31.98C18.7506 33.7532 17.9677 35.547 17.2261 37.3614L16.6905 38.7428C15.0012 43.1758 13.8887 47.8974 13.7651 48.5778L13.4767 50.0211C13.4149 50.2685 13.3737 50.4953 13.3325 50.7427L13.2089 51.4644C13.0235 52.4334 12.8999 53.3819 12.7763 54.351C12.3024 58.4334 12.323 60.2478 12.3642 63.0932C12.4055 64.0622 12.4467 65.0313 12.5497 66.021C14.445 93.794 40.3817 127.258 90.1746 139.773C90.6072 139.876 91.0398 139.567 91.0192 139.134C90.9986 138.825 90.9986 138.495 91.0398 138.247C91.1017 137.835 91.8845 137.34 92.5025 137.01C92.7085 136.907 92.6467 136.598 92.3995 136.577C52.5364 132.969 8.75906 96.4125 13.3737 54.3922C13.4973 53.4437 13.6209 52.4747 13.7857 51.5262L13.9093 50.8046C13.9505 50.5572 13.9917 50.3304 14.0329 50.0829L14.3214 48.6603C14.4038 48.2479 15.4338 43.485 17.1643 38.8665L17.6587 37.5057C19.9661 31.6707 22.9532 26.1037 26.8674 20.7429L27.7533 19.5471C28.0417 19.1553 28.3713 18.7636 28.6803 18.3718C28.9893 17.9801 29.2984 17.5883 29.628 17.2172C32.1825 14.1657 35.0049 11.2791 38.1362 8.70178C41.247 6.12448 44.6874 3.87707 48.3544 2.04203L48.1278 1.6709Z" fill="#5DB098"/>
<path d="M29.6692 12.1246C29.1747 16.4751 27.7121 20.3101 25.6726 20.9905C23.6537 21.6709 21.5317 18.8049 21.6141 14.2895C21.6759 10.8669 24.5189 7.21739 25.9816 5.73287C26.373 5.3205 27.0116 5.17617 27.2588 5.44421C28.2477 6.41327 30.04 8.82563 29.6692 12.1246Z" fill="#5DB098"/>
<path d="M20.3163 23.0936C20.8725 27.5678 20.3369 31.6708 18.4622 32.6605C16.6081 33.6502 13.8269 31.0935 12.8793 26.4956C12.1376 23.0111 14.0741 18.908 15.166 17.1761C15.4544 16.7019 16.0519 16.4751 16.3609 16.7019C17.5557 17.5472 19.8837 19.7122 20.3163 23.0936Z" fill="#5DB098"/>
<path d="M13.6209 35.6292C15.2072 40.0828 15.6193 44.3302 13.9712 45.6498C12.3643 46.9487 9.0063 44.7838 6.98739 40.2478C5.44231 36.8251 6.43116 32.3303 7.1316 30.4128C7.31701 29.8767 7.83204 29.5468 8.22346 29.753C9.58313 30.4128 12.4261 32.2684 13.6209 35.6292Z" fill="#5DB098"/>
<path d="M9.83033 49.4231C12.4261 53.7117 13.7857 57.9797 12.4673 59.588C11.1488 61.1962 7.317 59.5261 4.26804 55.2375C1.94011 51.9798 1.91951 47.2169 2.16672 45.1551C2.22853 44.5778 2.68175 44.1654 3.09377 44.2891C4.61825 44.7633 7.85263 46.2066 9.83033 49.4231Z" fill="#5DB098"/>
<path d="M9.19169 64.1655C12.7557 68.1037 15.1042 72.248 14.1566 74.1449C13.2089 76.0211 9.00628 74.9696 4.96846 71.0727C1.8989 68.1037 0.786441 63.2171 0.559829 61.0728C0.477424 60.4748 0.848244 59.98 1.28087 60.0419C2.92895 60.2687 6.49294 61.1965 9.19169 64.1655Z" fill="#5DB098"/>
<path d="M11.9729 79.4022C16.4639 82.8455 19.8013 86.7011 19.3068 88.8042C18.833 90.8867 14.3832 90.5774 9.41832 87.2372C5.64832 84.7218 3.3822 79.8764 2.66116 77.6909C2.45515 77.0929 2.68176 76.5156 3.15559 76.495C4.80368 76.4744 8.57368 76.8043 11.9729 79.4022Z" fill="#5DB098"/>
<path d="M18.4416 94.6396C23.7772 97.4025 28.0829 100.763 28.1859 103.052C28.2683 105.299 23.736 105.794 17.9265 103.217C13.5179 101.299 10.0157 96.6808 8.75905 94.5365C8.38823 93.9386 8.49124 93.2994 8.94446 93.2169C10.5719 92.8664 14.4037 92.5572 18.4416 94.6396Z" fill="#5DB098"/>
<path d="M28.8864 109.238C34.9637 111.134 40.2582 113.815 41.041 116.165C41.8032 118.495 37.374 119.835 30.8023 118.248C25.8168 117.052 21.0167 112.887 19.1832 110.908C18.6682 110.351 18.5858 109.691 19.0184 109.506C20.5635 108.846 24.2923 107.815 28.8864 109.238Z" fill="#5DB098"/>
<path d="M37.992 13.5472C33.0065 14.5163 29.1129 17.3204 29.3396 19.1348C29.5662 20.9698 33.4804 21.0729 38.0744 20.0008C41.5354 19.176 44.5432 16.9492 45.9234 15.9183C46.2943 15.6297 46.3355 15.1761 45.9852 14.9905C44.7698 14.2689 41.762 12.8049 37.992 13.5472Z" fill="#5DB098"/>
<path d="M41.3706 3.21739C36.4675 6.55757 34.3662 10.4957 35.7877 11.5266C37.2298 12.5575 41.3706 10.5782 45.8822 7.52664C49.2608 5.21738 51.4239 2.104 52.351 0.701943C52.5982 0.310193 52.3304 -0.0197013 51.7742 0.000917117C49.7759 0.0627724 45.0582 0.681325 41.3706 3.21739Z" fill="#5DB098"/>
<path d="M28.7421 23.4028C24.0863 25.0935 20.8931 28.5161 21.5524 30.3306C22.2116 32.1656 26.1258 31.6708 30.3902 29.8976C33.604 28.5574 36.0143 25.877 37.1062 24.6399C37.3946 24.2894 37.3328 23.8358 36.9414 23.6914C35.5611 23.1554 32.2649 22.1038 28.7421 23.4028Z" fill="#5DB098"/>
<path d="M21.9644 34.7429C17.7411 37.1759 15.372 41.1552 16.4433 42.8872C17.5145 44.6397 21.3051 43.5057 25.1369 41.0521C28.0211 39.1965 29.7516 36.1243 30.555 34.7223C30.761 34.3305 30.5756 33.8769 30.1636 33.7944C28.6597 33.4439 25.1575 32.8872 21.9644 34.7429Z" fill="#5DB098"/>
<path d="M17.8853 47.2997C14.2389 50.4543 12.7969 54.9079 14.2596 56.4955C15.7428 58.1037 19.245 56.3099 22.5 53.1965C24.9309 50.8254 25.961 47.4646 26.4348 45.9182C26.5584 45.4852 26.27 45.0729 25.8374 45.0316C24.2511 44.9285 20.6253 44.9079 17.8853 47.2997Z" fill="#5DB098"/>
<path d="M16.6905 60.7633C13.7858 64.5777 13.3531 69.4024 15.2072 70.7838C17.0613 72.1859 20.1309 69.7323 22.6648 66.0004C24.5601 63.1756 24.8073 59.5674 24.9103 57.9179C24.9309 57.4643 24.5395 57.0726 24.1069 57.1138C22.5 57.2788 18.8742 57.8561 16.6905 60.7633Z" fill="#5DB098"/>
<path d="M18.627 74.7219C16.6287 79.1549 17.3703 84.1858 19.5334 85.2785C21.7172 86.3919 24.1687 83.3198 25.7962 79.0518C26.991 75.8147 26.4142 72.1034 26.1258 70.4127C26.0434 69.9384 25.5696 69.6292 25.1369 69.7322C23.5919 70.1652 20.1103 71.3817 18.627 74.7219Z" fill="#5DB098"/>
<path d="M23.9009 88.763C22.9944 93.6701 25.0546 98.7629 27.5061 99.5051C29.9782 100.268 31.6057 96.6392 32.1207 91.9382C32.4916 88.3918 31.0083 84.6805 30.3078 82.9898C30.1018 82.5362 29.5662 82.2682 29.1542 82.4743C27.7327 83.1754 24.5601 85.031 23.9009 88.763Z" fill="#5DB098"/>
<path d="M32.78 102.269C33.2126 107.526 36.7148 112.413 39.3929 112.722C42.0916 113.052 42.6273 108.969 41.8444 104.042C41.2264 100.31 38.7543 96.7634 37.6212 95.1345C37.3122 94.7015 36.6942 94.5366 36.3439 94.8046C35.1285 95.8149 32.4503 98.3098 32.78 102.269Z" fill="#5DB098"/>
</g>
<g filter="url(#filter0_dd)">
<path d="M94 49V44H64V49H54V55C54 61.5 58.25 66.75 64.25 68.5C65 75 70 80.25 76.5 81.25V89H72C71.75 89 71.25 89.25 71 89.25L68.5 91.75C67.75 92.75 68.5 94 69.5 94H88.5C89.5 94 90.25 92.75 89.5 91.75L87 89.25C86.75 89 86.5 89 86 89H81.5V81.25C88 80 93 75 93.75 68.5C99.75 66.75 104 61.25 104 55V49H94ZM64 63C58.25 60.25 59 54 59 54H64V63ZM94 63V54H99C99 54 99.75 60 94 63Z" fill="url(#paint0_linear)"/>
</g>
<defs>
<filter id="filter0_dd" x="51" y="44" width="56" height="56" filterUnits="userSpaceOnUse" color-interpolation-filters="sRGB">
<feFlood flood-opacity="0" result="BackgroundImageFix"/>
<feColorMatrix in="SourceAlpha" type="matrix" values="0 0 0 0 0 0 0 0 0 0 0 0 0 0 0 0 0 0 127 0"/>
<feOffset dy="3"/>
<feGaussianBlur stdDeviation="1.5"/>
<feColorMatrix type="matrix" values="0 0 0 0 0.38026 0 0 0 0 0.605242 0 0 0 0 0.6125 0 0 0 0.15 0"/>
<feBlend mode="normal" in2="BackgroundImageFix" result="effect1_dropShadow"/>
<feColorMatrix in="SourceAlpha" type="matrix" values="0 0 0 0 0 0 0 0 0 0 0 0 0 0 0 0 0 0 127 0"/>
<feOffset dx="1"/>
<feColorMatrix type="matrix" values="0 0 0 0 0.845833 0 0 0 0 0.510425 0 0 0 0 0.0951563 0 0 0 1 0"/>
<feBlend mode="normal" in2="effect1_dropShadow" result="effect2_dropShadow"/>
<feBlend mode="normal" in="SourceGraphic" in2="effect2_dropShadow" result="shape"/>
</filter>
<linearGradient id="paint0_linear" x1="61.8306" y1="20.1294" x2="93.6883" y2="88.0448" gradientUnits="userSpaceOnUse">
<stop stop-color="#FFE887"/>
<stop offset="0.174" stop-color="#FDDE7B"/>
<stop offset="0.4853" stop-color="#F8C25D"/>
<stop offset="0.8953" stop-color="#EF952B"/>
<stop offset="1" stop-color="#ED881D"/>
</linearGradient>
</defs>
</svg>
