<svg width="16" height="16" viewBox="0 0 16 16" fill="none" xmlns="http://www.w3.org/2000/svg">
<path d="M12.8 1.6V0H3.2V1.6H0V3.52C0 5.6 1.36 7.28 3.28 7.84C3.52 9.92 5.12 11.6 7.2 11.92V14.4H5.76C5.68 14.4 5.52 14.48 5.44 14.48L4.64 15.28C4.4 15.6 4.64 16 4.96 16H11.04C11.36 16 11.6 15.6 11.36 15.28L10.56 14.48C10.48 14.4 10.4 14.4 10.24 14.4H8.8V11.92C10.88 11.52 12.48 9.92 12.72 7.84C14.64 7.28 16 5.52 16 3.52V1.6H12.8ZM3.2 6.08C1.36 5.2 1.6 3.2 1.6 3.2H3.2V6.08ZM12.8 6.08V3.2H14.4C14.4 3.2 14.64 5.12 12.8 6.08Z" fill="url(#paint0_linear)"/>
<defs>
<linearGradient id="paint0_linear" x1="2.50578" y1="-7.6386" x2="12.7002" y2="14.0943" gradientUnits="userSpaceOnUse">
<stop stop-color="#FFE887"/>
<stop offset="0.174" stop-color="#FDDE7B"/>
<stop offset="0.4853" stop-color="#F8C25D"/>
<stop offset="0.8953" stop-color="#EF952B"/>
<stop offset="1" stop-color="#ED881D"/>
</linearGradient>
</defs>
</svg>
